SplineFontDB: 3.0
FontName: Besley-it-Bold
FullName: Besley* Bold
FamilyName: Besley*
Weight: Bold
Copyright: Copyright (c) 2017, Owen Earl,,, (EwonRael@yahoo.com)
FontLog: "UPDATED KERNING"
Version: 001.1
ItalicAngle: 0
UnderlinePosition: -100
UnderlineWidth: 50
Ascent: 800
Descent: 200
InvalidEm: 0
LayerCount: 2
Layer: 0 0 "Back" 1
Layer: 1 0 "Fore" 0
XUID: [1021 31 -699969567 16487490]
FSType: 0
OS2Version: 0
OS2_WeightWidthSlopeOnly: 0
OS2_UseTypoMetrics: 1
CreationTime: 1460762150
ModificationTime: 1500516622
PfmFamily: 17
TTFWeight: 700
TTFWidth: 5
LineGap: 100
VLineGap: 0
OS2TypoAscent: 800
OS2TypoAOffset: 0
OS2TypoDescent: -200
OS2TypoDOffset: 0
OS2TypoLinegap: 100
OS2WinAscent: 900
OS2WinAOffset: 0
OS2WinDescent: 300
OS2WinDOffset: 0
HheadAscent: 900
HheadAOffset: 0
HheadDescent: -200
HheadDOffset: 0
OS2CapHeight: 700
OS2XHeight: 460
OS2FamilyClass: 1024
OS2Vendor: 'PfEd'
OS2UnicodeRanges: 00000001.00000000.00000000.00000000
Lookup: 5 0 0 "'calt' Contextual Alternates lookup 1" { "'calt' Contextual Alternates lookup 1-1"  } ['calt' ('DFLT' <'dflt' > 'grek' <'dflt' > 'latn' <'dflt' > ) ]
Lookup: 1 0 0 "'ss01' Style Set 1 lookup 2" { "'ss01' Style Set 1 lookup 2-1"  } ['ss01' ('DFLT' <'dflt' > 'grek' <'dflt' > 'latn' <'dflt' > ) ]
Lookup: 4 0 1 "'liga' Standard Ligatures lookup 0" { "Not your mama's contextual ligatures"  } ['liga' ('DFLT' <'dflt' > 'grek' <'dflt' > 'latn' <'dflt' > ) ]
Lookup: 258 0 0 "Kern like there's no tomorrow" { "Get it right" [150,0,5] } ['kern' ('DFLT' <'dflt' > 'grek' <'dflt' > 'latn' <'dflt' > ) ]
MarkAttachClasses: 1
DEI: 91125
KernClass2: 19 21 "Get it right"
 3 A L
 15 B R G C U J S N
 3 D O
 7 E H I Z
 5 F P Y
 3 K X
 3 Q M
 3 V W
 9 a h m n u
 7 b e o p
 3 c q
 7 d j l i
 3 k x
 9 r v w y g
 68 quotedbl quotesingle quoteleft quoteright quotedblleft quotedblright
 1 f
 1 t
 1 T
 3 A J
 31 B D E F H I K L M N P R uniFFFD
 7 C G O Q
 3 S Z
 3 V W
 1 U
 1 X
 1 Y
 5 a g s
 7 b h k l
 9 c d e o q
 3 f i
 5 p t u
 5 m n r
 3 v w

StartChar: ampersand
Encoding: 38 38 0
Width: 870
Flags: HMW
LayerCount: 2
Fore
SplineSet
603 460 m 2
 783 460 l 2
 787 460 790 460 793 460 c 0
 813 460 815 458 815 432 c 2
 815 392 l 2
 815 389 815 386 815 384 c 0
 815 367 814 365 791 365 c 2
 769 365 l 2
 735 365 737 361 730 336 c 0
 715 283 691 233 660 188 c 0
 649 172 641 165 641 155 c 0
 641 149 643 143 650 134 c 2
 666 112 l 2
 676 97 679 95 705 95 c 2
 779 95 l 2
 783 95 786 95 789 95 c 0
 808 95 810 93 810 68 c 2
 810 38 l 2
 810 0 809 0 773 -0 c 0
 772 0 772 0 771 0 c 2
 591 0 l 2
 585 0 579 0 574 -0 c 0
 556 0 545 1 536 14 c 2
 525 30 l 2
 519 39 514 42 510 42 c 0
 505 42 500 38 489 32 c 0
 429 -1 361 -20 290 -20 c 0
 127 -20 1 57 1 200 c 0
 1 328 91 379 191 416 c 0
 217 426 229 429 229 437 c 0
 229 443 223 451 212 466 c 2
 195 490 l 2
 168 528 149 568 149 603 c 0
 149 693 244 770 400 770 c 0
 547 770 626 705 626 625 c 0
 626 534 564 489 487 454 c 0
 462 443 444 442 444 430 c 0
 444 425 447 418 454 408 c 6
 560 260 l 2
 571 245 577 237 583 237 c 0
 589 237 594 247 605 266 c 0
 616 286 625 307 632 328 c 0
 636 340 640 349 640 355 c 0
 640 363 633 365 611 365 c 2
 581 365 l 2
 567 365 564 370 564 379 c 0
 564 384 565 391 565 398 c 2
 565 432 l 2
 565 457 569 460 585 460 c 0
 590 460 596 460 603 460 c 2
239 334 m 4
 210 306 191 270 191 220 c 0
 191 138 251 85 325 85 c 0
 358 85 390 91 419 101 c 0
 443 110 452 117 452 126 c 0
 452 137 438 151 423 172 c 2
 317 320 l 2
 300 344 290 358 277 358 c 0
 268 358 256 351 239 334 c 4
462 615 m 0
 462 652 444 700 399 700 c 0
 352 700 327 668 327 625 c 0
 327 598 341 571 367 532 c 0
 379 513 387 502 397 502 c 0
 405 502 413 509 427 524 c 4
 449 547 462 576 462 615 c 0
EndSplineSet
EndChar

StartChar: period
Encoding: 46 46 1
Width: 280
Flags: HMW
LayerCount: 2
Fore
SplineSet
40 80 m 4
 40 135 85 180 140 180 c 4
 195 180 240 135 240 80 c 4
 240 25 195 -20 140 -20 c 4
 85 -20 40 25 40 80 c 4
EndSplineSet
EndChar

StartChar: zero
Encoding: 48 48 2
Width: 530
Flags: HMW
LayerCount: 2
Fore
SplineSet
25 280 m 0
 25 473 102 580 265 580 c 0
 438 580 505 473 505 280 c 0
 505 87 418 -20 265 -20 c 0
 102 -20 25 87 25 280 c 0
210 280 m 0
 210 128 211 55 265 55 c 0
 319 55 320 128 320 280 c 0
 320 432 319 505 265 505 c 0
 211 505 210 432 210 280 c 0
EndSplineSet
EndChar

StartChar: one
Encoding: 49 49 3
Width: 530
VWidth: 1155
Flags: HMW
LayerCount: 2
Fore
SplineSet
475 0 m 6
 79 0 l 2
 73 0 68 0 64 -0 c 0
 48 0 45 2 45 26 c 2
 45 72 l 2
 45 99 46 100 70 100 c 0
 72 100 73 100 75 100 c 2
 175 100 l 2
 203 100 205 103 205 123 c 0
 205 127 205 131 205 136 c 2
 205 330 l 2
 205 338 205 344 205 350 c 0
 205 370 202 375 171 375 c 2
 91 375 l 2
 87 375 84 375 81 375 c 0
 64 375 62 377 62 400 c 2
 62 448 l 2
 62 463 68 466 77 466 c 0
 82 466 86 465 93 465 c 0
 94 465 94 465 95 465 c 0
 189 466 261 478 307 572 c 0
 313 585 312 590 333 590 c 2
 357 590 l 2
 380 590 380 589 380 566 c 2
 380 144 l 2
 380 135 379 126 379 119 c 0
 379 108 382 100 399 100 c 2
 471 100 l 2
 472 100 473 100 474 100 c 0
 500 100 500 100 500 72 c 2
 500 22 l 2
 500 1 499 0 483 -0 c 0
 481 0 478 0 475 0 c 6
EndSplineSet
EndChar

StartChar: two
Encoding: 50 50 4
Width: 530
VWidth: 1155
Flags: HMW
LayerCount: 2
Fore
SplineSet
510 156 m 0
 504 25 445 -40 360 -40 c 0
 263 -40 248 25 175 25 c 0
 146 25 128 18 116 3 c 0
 106 -9 110 -20 86 -20 c 2
 39 -20 l 2
 24 -20 24 -18 25 -4 c 0
 30 131 106 185 212 249 c 0
 285 293 307 356 307 420 c 0
 307 484 281 518 222 518 c 0
 188 518 150 499 150 477 c 0
 150 459 232 464 232 388 c 0
 232 331 182 290 135 290 c 0
 86 290 31 328 31 396 c 0
 31 508 140 580 262 580 c 0
 403 580 498 520 498 410 c 0
 498 330 431 254 247 195 c 0
 210 183 174 168 151 145 c 4
 136 130 129 122 129 120 c 0
 129 119 129 119 130 119 c 0
 134 119 145 125 164 133 c 0
 181 141 200 147 220 147 c 1
 300 147 300 103 366 103 c 0
 405 103 436 121 442 162 c 0
 444 176 443 177 459 177 c 2
 489 177 l 2
 507 177 510 177 510 164 c 0
 510 162 510 159 510 156 c 0
EndSplineSet
EndChar

StartChar: three
Encoding: 51 51 5
Width: 530
VWidth: 1155
Flags: HMW
LayerCount: 2
Fore
SplineSet
15 -1 m 0
 15 62 60 105 109 105 c 0
 156 105 196 84 196 27 c 0
 196 -29 144 -31 144 -54 c 0
 144 -81 172 -98 226 -98 c 0
 295 -98 324 -34 324 40 c 0
 324 107 309 180 227 194 c 0
 199 199 197 194 197 227 c 2
 197 247 l 2
 197 281 206 273 232 278 c 0
 298 291 304 346 304 401 c 0
 304 485 285 518 226 518 c 0
 192 518 164 500 164 478 c 0
 164 455 206 450 206 404 c 0
 206 347 171 316 124 316 c 0
 75 316 35 354 35 412 c 0
 35 494 124 580 256 580 c 0
 377 580 485 521 485 401 c 0
 485 334 449 277 369 255 c 0
 348 249 337 245 337 239 c 0
 337 234 347 228 367 219 c 0
 457 179 505 115 505 40 c 1
 505 -70 397 -170 236 -170 c 0
 74 -170 15 -93 15 -1 c 0
EndSplineSet
EndChar

StartChar: four
Encoding: 52 52 6
Width: 530
VWidth: 1155
Flags: HMW
LayerCount: 2
Fore
SplineSet
515 -89 m 6
 515 -123 l 2
 515 -149 514 -150 491 -150 c 0
 489 -150 488 -150 486 -150 c 2
 212 -150 l 2
 181 -150 180 -149 180 -121 c 0
 180 -119 180 -118 180 -116 c 2
 180 -90 l 2
 180 -62 183 -60 203 -60 c 0
 207 -60 211 -60 216 -60 c 2
 243 -60 l 2
 263 -60 265 -57 265 -44 c 0
 265 -40 265 -36 265 -31 c 2
 265 29 l 2
 265 53 262 55 246 55 c 0
 242 55 237 55 232 55 c 2
 54 55 l 2
 49 55 45 55 41 55 c 0
 28 55 25 57 25 77 c 2
 25 106 l 2
 25 130 30 139 38 154 c 0
 101 283 233 408 253 530 c 0
 258 560 254 560 288 560 c 0
 289 560 l 2
 394 560 l 2
 395 560 397 560 398 560 c 0
 417 560 422 559 422 547 c 0
 422 544 422 539 421 534 c 0
 401 391 219 295 134 179 c 0
 126 167 116 159 116 153 c 0
 116 148 123 145 144 145 c 2
 232 145 l 2
 263 145 265 148 265 170 c 0
 265 174 265 179 265 184 c 0
 265 228 274 223 302 243 c 0
 330 263 362 292 382 333 c 0
 392 353 386 370 417 370 c 0
 437 370 441 365 441 353 c 0
 441 348 440 341 440 333 c 2
 440 168 l 2
 440 165 440 161 440 159 c 0
 440 147 441 145 459 145 c 2
 493 145 l 2
 508 145 510 142 510 133 c 0
 510 130 510 125 510 120 c 2
 510 84 l 2
 510 79 510 75 510 71 c 0
 510 58 508 55 488 55 c 2
 461 55 l 2
 440 55 440 55 440 34 c 2
 440 -20 l 2
 440 -29 439 -35 439 -41 c 0
 439 -55 443 -60 466 -60 c 2
 489 -60 l 2
 514 -60 515 -62 515 -81 c 0
 515 -83 515 -86 515 -89 c 6
EndSplineSet
EndChar

StartChar: five
Encoding: 53 53 7
Width: 530
VWidth: 1155
Flags: HMW
LayerCount: 2
Fore
SplineSet
25 -1 m 0
 25 57 65 110 124 110 c 0
 181 110 207 74 207 27 c 0
 207 -31 159 -34 159 -57 c 0
 159 -75 172 -93 226 -93 c 0
 285 -93 324 -44 324 60 c 0
 324 194 305 241 236 241 c 0
 208 241 186 235 165 222 c 0
 147 211 139 197 106 197 c 2
 63 197 l 2
 47 197 42 202 42 211 c 0
 42 219 46 230 47 241 c 2
 81 538 l 2
 84 563 89 565 107 565 c 0
 112 565 118 565 125 565 c 2
 227 565 l 0
 259 565 283 564 302 564 c 0
 344 564 357 568 375 588 c 0
 385 600 387 607 413 607 c 2
 442 607 l 2
 461 607 464 606 464 596 c 0
 464 592 463 587 463 580 c 2
 458 495 l 2
 452 413 422 395 185 395 c 2
 172 395 l 2
 149 395 149 394 147 374 c 2
 140 314 l 2
 139 307 139 301 139 297 c 0
 139 290 141 288 143 288 c 0
 148 288 156 297 170 303 c 4
 196 314 228 320 268 320 c 0
 449 320 505 220 505 80 c 0
 505 -70 397 -165 236 -165 c 0
 104 -165 25 -83 25 -1 c 0
EndSplineSet
EndChar

StartChar: six
Encoding: 54 54 8
Width: 530
VWidth: 1155
Flags: HMW
LayerCount: 2
Fore
SplineSet
200 260 m 0
 200 156 200 50 269 50 c 0
 328 50 330 146 330 230 c 0
 330 344 323 396 274 396 c 0
 221 396 200 340 200 260 c 0
510 230 m 0
 510 110 420 -20 269 -20 c 0
 98 -20 20 110 20 350 c 0
 20 550 123 730 294 730 c 0
 406 730 490 663 490 581 c 0
 490 513 445 485 396 485 c 0
 349 485 309 516 309 573 c 0
 309 619 348 628 348 641 c 0
 348 654 333 668 294 668 c 0
 224 668 205 572 201 450 c 0
 201 447 201 444 201 441 c 0
 201 430 202 427 204 427 c 0
 208 427 216 440 227 447 c 4
 245 459 267 465 296 465 c 0
 407 465 510 380 510 230 c 0
EndSplineSet
EndChar

StartChar: seven
Encoding: 55 55 9
Width: 540
VWidth: 1155
Flags: HMW
LayerCount: 2
Fore
SplineSet
31 388 m 0
 40 513 98 590 180 590 c 0
 277 590 302 525 375 525 c 0
 410 525 437 536 450 557 c 0
 455 565 453 570 467 570 c 2
 497 570 l 2
 512 570 515 572 513 558 c 0
 502 487 404 349 338 218 c 0
 301 144 299 110 299 86 c 0
 299 13 352 14 352 -62 c 0
 352 -119 308 -160 244 -160 c 0
 186 -160 139 -113 139 -34 c 0
 139 45 179 123 249 231 c 0
 276 273 310 322 343 370 c 0
 350 380 356 387 356 390 c 0
 356 391 355 392 353 392 c 0
 350 392 344 391 336 388 c 4
 328 385 319 383 310 383 c 0
 230 383 230 427 164 427 c 0
 131 427 109 414 101 385 c 0
 96 366 104 353 78 353 c 2
 50 353 l 2
 33 353 29 358 29 367 c 0
 29 372 30 380 31 388 c 0
EndSplineSet
EndChar

StartChar: eight
Encoding: 56 56 10
Width: 530
VWidth: 1155
Flags: HMW
LayerCount: 2
Fore
SplineSet
205 190 m 0
 205 106 226 40 265 40 c 0
 304 40 325 106 325 190 c 0
 325 274 304 338 265 338 c 0
 226 338 205 274 205 190 c 0
50 530 m 0
 50 640 134 730 265 730 c 0
 396 730 480 640 480 530 c 0
 480 462 433 411 377 382 c 0
 366 376 361 371 361 366 c 0
 361 360 368 356 381 350 c 0
 450 320 500 259 500 180 c 1
 500 60 426 -20 265 -20 c 0
 104 -20 30 60 30 180 c 0
 30 258 79 318 146 349 c 4
 160 356 168 360 168 366 c 0
 168 371 163 376 151 383 c 4
 96 413 50 463 50 530 c 0
215 530 m 0
 215 456 226 395 265 395 c 0
 304 395 315 456 315 530 c 0
 315 604 304 665 265 665 c 0
 226 665 215 604 215 530 c 0
EndSplineSet
EndChar

StartChar: A
Encoding: 65 65 12
Width: 980
Flags: HMW
LayerCount: 2
Fore
SplineSet
433 560 m 4
 427 537 418 518 403 482 c 2
 342 334 l 2
 336 320 332 311 332 305 c 0
 332 295 343 295 374 295 c 0
 376 295 378 295 380 295 c 2
 502 295 l 2
 531 295 540 299 540 308 c 0
 540 317 532 330 526 348 c 2
 472 498 l 2
 464 519 460 536 453 562 c 0
 450 574 446 579 443 579 c 0
 440 579 436 572 433 560 c 4
306 0 m 2
 64 0 l 2
 54 0 46 -1 40 -1 c 0
 26 -1 20 3 20 26 c 2
 20 76 l 2
 20 79 20 82 20 84 c 0
 20 103 21 105 46 105 c 2
 78 105 l 2
 134 105 130 119 146 156 c 2
 394 738 l 2
 405 764 409 765 448 765 c 2
 526 765 l 2
 575 765 571 751 584 718 c 2
 812 146 l 2
 826 112 824 105 874 105 c 2
 932 105 l 2
 935 105 938 105 940 105 c 0
 958 105 960 104 960 80 c 2
 960 36 l 2
 960 31 960 26 960 22 c 0
 960 2 958 0 930 0 c 2
 540 0 l 2
 513 0 510 4 510 22 c 0
 510 27 510 33 510 40 c 2
 510 86 l 2
 510 103 514 105 524 105 c 0
 528 105 534 105 540 105 c 2
 576 105 l 2
 601 105 609 107 609 114 c 0
 609 120 604 129 599 142 c 2
 592 162 l 2
 582 190 579 190 542 190 c 0
 540 190 l 2
 330 190 l 2
 278 190 279 182 264 146 c 0
 258 131 253 121 253 115 c 0
 253 106 264 105 298 105 c 0
 307 105 314 106 320 106 c 0
 334 106 340 102 340 78 c 2
 340 38 l 2
 340 34 340 30 340 27 c 0
 340 2 338 0 306 0 c 2
EndSplineSet
EndChar

StartChar: B
Encoding: 66 66 13
Width: 830
Flags: HMW
LayerCount: 2
Fore
SplineSet
470 0 m 0
 82 0 l 2
 74 0 67 0 61 -0 c 0
 34 0 30 3 30 42 c 2
 30 64 l 2
 30 67 30 70 30 72 c 0
 30 104 31 105 68 105 c 2
 100 105 l 2
 136 105 141 112 141 134 c 0
 141 142 140 153 140 166 c 2
 140 606 l 2
 140 643 138 645 109 645 c 0
 105 645 101 645 96 645 c 2
 70 645 l 2
 65 645 61 645 57 645 c 0
 32 645 30 647 30 680 c 2
 30 716 l 2
 30 747 33 750 55 750 c 0
 60 750 66 750 72 750 c 2
 450 750 l 0
 641 750 750 705 750 565 c 0
 750 493 712 444 652 414 c 4
 627 402 611 398 611 393 c 0
 611 388 623 382 652 370 c 4
 729 336 780 291 780 210 c 1
 780 50 671 0 470 0 c 0
450 105 m 2
 536 105 580 146 580 225 c 0
 580 314 516 335 450 335 c 2
 378 335 l 2
 369 335 361 335 355 335 c 0
 330 335 325 331 325 294 c 2
 325 164 l 2
 325 160 325 156 325 153 c 0
 325 107 327 105 380 105 c 2
 450 105 l 2
374 440 m 2
 440 440 l 2
 506 440 560 466 560 545 c 0
 560 624 516 645 440 645 c 2
 368 645 l 2
 327 645 325 642 325 611 c 0
 325 607 325 602 325 596 c 2
 325 492 l 2
 325 489 325 487 325 484 c 0
 325 442 326 440 374 440 c 2
EndSplineSet
EndChar

StartChar: C
Encoding: 67 67 14
Width: 855
Flags: HMW
LayerCount: 2
Fore
SplineSet
829 248 m 4
 798 97 662 -20 460 -20 c 0
 177 -20 45 152 45 375 c 0
 45 598 222 770 465 770 c 0
 529 770 581 751 623 722 c 0
 645 707 654 690 665 690 c 0
 671 690 678 696 689 711 c 2
 707 736 l 2
 719 754 724 755 755 755 c 2
 794 755 l 2
 797 755 l 0
 824 755 825 755 825 725 c 2
 825 519 l 2
 825 514 825 510 825 506 c 0
 825 478 823 475 786 475 c 2
 742 475 l 2
 698 475 708 493 695 523 c 0
 661 602 584 662 480 662 c 0
 346 662 255 547 255 375 c 0
 255 203 336 89 470 89 c 0
 600 89 682 150 710 242 c 0
 721 278 708 295 758 295 c 2
 792 295 l 2
 824 295 834 292 834 277 c 0
 834 270 832 261 829 248 c 4
EndSplineSet
EndChar

StartChar: D
Encoding: 68 68 15
Width: 895
Flags: HMW
LayerCount: 2
Fore
SplineSet
440 0 m 0
 94 0 l 2
 80 0 68 -2 57 -2 c 0
 41 -2 30 3 30 26 c 2
 30 78 l 2
 30 103 33 105 50 105 c 0
 54 105 58 105 64 105 c 2
 102 105 l 2
 136 105 141 113 141 133 c 0
 141 141 140 151 140 164 c 2
 140 594 l 2
 140 597 140 599 140 602 c 0
 140 643 139 645 92 645 c 2
 72 645 l 2
 69 645 66 645 64 645 c 0
 31 645 30 646 30 684 c 2
 30 718 l 2
 30 747 37 751 54 751 c 0
 61 751 69 750 80 750 c 6
 440 750 l 0
 723 750 850 588 850 375 c 0
 850 162 713 0 440 0 c 0
372 105 m 6
 440 105 l 2
 594 105 640 193 640 375 c 0
 640 557 584 645 440 645 c 2
 388 645 l 2
 380 645 374 645 368 645 c 0
 329 645 325 642 325 590 c 2
 325 160 l 2
 325 153 325 147 325 141 c 0
 325 109 328 105 372 105 c 6
EndSplineSet
EndChar

StartChar: E
Encoding: 69 69 16
Width: 775
Flags: HMW
LayerCount: 2
Fore
SplineSet
100 645 m 6
 72 645 l 2
 32 645 30 648 30 679 c 0
 30 683 30 687 30 692 c 2
 30 718 l 2
 30 747 37 751 54 751 c 0
 61 751 69 750 80 750 c 2
 706 750 l 2
 743 750 745 748 745 719 c 0
 745 715 745 711 745 706 c 2
 745 534 l 2
 745 525 745 518 745 512 c 0
 745 490 742 485 708 485 c 2
 676 485 l 2
 637 485 646 497 643 530 c 0
 636 613 606 645 505 645 c 2
 390 645 l 2
 386 645 382 645 379 645 c 0
 327 645 325 643 325 584 c 2
 325 458 l 2
 325 454 325 450 325 447 c 0
 325 431 327 428 350 428 c 0
 413 428 453 460 466 508 c 0
 472 531 462 543 492 543 c 2
 512 543 l 2
 542 543 545 539 545 519 c 0
 545 514 545 508 545 500 c 2
 545 272 l 2
 545 263 546 255 546 249 c 0
 546 233 542 228 516 228 c 2
 492 228 l 2
 462 228 472 239 466 262 c 0
 454 312 413 348 350 348 c 0
 349 348 348 348 347 348 c 0
 325 348 325 348 325 324 c 2
 325 166 l 2
 325 155 325 146 325 139 c 0
 325 111 329 105 372 105 c 2
 495 105 l 2
 613 105 647 145 654 244 c 0
 657 283 647 295 692 295 c 2
 718 295 l 2
 753 295 755 292 755 266 c 0
 755 262 755 257 755 252 c 2
 755 52 l 2
 755 45 755 40 755 35 c 0
 755 4 752 0 710 0 c 2
 92 0 l 2
 78 0 67 -1 58 -1 c 0
 38 -1 30 4 30 38 c 2
 30 68 l 2
 30 105 31 105 66 105 c 0
 67 105 67 105 68 105 c 2
 94 105 l 2
 136 105 140 111 140 139 c 0
 140 146 140 154 140 164 c 2
 140 594 l 2
 140 603 140 610 140 616 c 0
 140 640 137 645 100 645 c 6
EndSplineSet
EndChar

StartChar: F
Encoding: 70 70 17
Width: 765
Flags: HMW
LayerCount: 2
Fore
SplineSet
104 645 m 2
 64 645 l 2
 32 645 30 648 30 672 c 0
 30 676 30 679 30 684 c 2
 30 706 l 2
 30 747 33 750 65 750 c 0
 69 750 74 750 80 750 c 2
 686 750 l 2
 696 750 704 750 710 750 c 0
 730 750 735 747 735 714 c 2
 735 534 l 2
 735 521 736 510 736 502 c 0
 736 482 731 475 698 475 c 2
 666 475 l 2
 627 475 636 487 633 520 c 0
 626 606 596 645 495 645 c 2
 370 645 l 2
 328 645 325 640 325 611 c 0
 325 605 325 598 325 590 c 2
 325 446 l 2
 325 428 325 418 340 418 c 4
 399 418 444 446 462 490 c 0
 474 520 460 533 502 533 c 2
 518 533 l 2
 543 533 545 531 545 512 c 0
 545 509 545 506 545 502 c 2
 545 244 l 2
 545 236 546 229 546 224 c 0
 546 214 543 208 526 208 c 2
 494 208 l 2
 464 208 472 215 466 238 c 0
 455 281 421 313 374 324 c 0
 365 326 354 329 345 329 c 0
 334 329 325 325 325 310 c 2
 325 152 l 2
 325 142 324 133 324 125 c 0
 324 113 327 105 346 105 c 2
 402 105 l 2
 411 105 419 106 425 106 c 0
 439 106 445 102 445 78 c 2
 445 30 l 2
 445 1 443 0 419 -0 c 0
 417 0 415 0 412 0 c 2
 66 0 l 2
 60 0 54 0 50 -0 c 0
 33 0 30 2 30 28 c 2
 30 68 l 2
 30 75 30 80 30 85 c 0
 30 102 33 105 58 105 c 2
 90 105 l 2
 128 105 140 107 140 138 c 6
 140 606 l 2
 140 609 140 612 140 614 c 0
 140 644 139 645 104 645 c 2
EndSplineSet
EndChar

StartChar: G
Encoding: 71 71 18
Width: 925
Flags: HMW
LayerCount: 2
Fore
SplineSet
525 390 m 6
 875 390 l 2
 883 390 890 390 895 390 c 0
 911 390 915 387 915 361 c 2
 915 317 l 2
 915 313 915 310 915 307 c 0
 915 287 913 285 887 285 c 2
 855 285 l 2
 853 285 851 285 849 285 c 0
 816 285 815 284 815 247 c 0
 815 204 812 187 793 154 c 0
 744 70 620 -20 450 -20 c 0
 202 -20 45 132 45 375 c 0
 45 598 212 770 455 770 c 0
 533 770 593 745 637 707 c 0
 649 697 655 690 660 690 c 0
 665 690 669 697 679 711 c 2
 697 737 l 2
 708 753 712 755 741 755 c 2
 777 755 l 2
 803 755 805 751 805 734 c 0
 805 730 805 725 805 719 c 2
 805 521 l 2
 805 511 806 503 806 496 c 0
 806 481 802 475 777 475 c 2
 727 475 l 2
 692 475 699 486 690 511 c 0
 659 596 579 662 470 662 c 0
 356 662 255 547 255 375 c 0
 255 203 326 85 445 85 c 0
 528 85 571 109 605 150 c 0
 619 167 630 177 630 211 c 2
 630 249 l 2
 630 284 628 285 598 285 c 0
 596 285 594 285 591 285 c 2
 537 285 l 2
 527 285 519 285 512 285 c 0
 491 285 485 289 485 323 c 2
 485 361 l 2
 485 387 490 390 506 390 c 0
 511 390 517 390 525 390 c 6
EndSplineSet
EndChar

StartChar: H
Encoding: 72 72 19
Width: 960
Flags: HMW
LayerCount: 2
Fore
SplineSet
325 607 m 2
 325 477 l 2
 325 472 325 469 325 465 c 0
 325 443 327 440 357 440 c 2
 605 440 l 2
 632 440 636 447 636 463 c 0
 636 470 635 480 635 491 c 2
 635 623 l 2
 635 643 631 645 619 645 c 0
 615 645 611 645 605 645 c 2
 551 645 l 2
 517 645 515 647 515 674 c 0
 515 677 515 681 515 685 c 2
 515 725 l 2
 515 747 519 750 533 750 c 0
 538 750 545 750 553 750 c 2
 889 750 l 2
 898 750 904 751 910 751 c 0
 924 751 930 747 930 723 c 2
 930 671 l 2
 930 647 927 645 911 645 c 0
 907 645 902 645 897 645 c 2
 859 645 l 2
 854 645 850 645 846 645 c 0
 822 645 820 643 820 611 c 2
 820 143 l 2
 820 135 820 128 820 123 c 0
 820 110 823 105 845 105 c 2
 901 105 l 2
 902 105 903 105 904 105 c 0
 930 105 930 105 930 77 c 2
 930 27 l 2
 930 2 926 0 910 -0 c 0
 906 0 901 0 895 0 c 2
 553 0 l 2
 544 0 538 -1 532 -1 c 0
 521 -1 515 2 515 21 c 2
 515 73 l 2
 515 103 517 105 541 105 c 0
 544 105 547 105 551 105 c 2
 611 105 l 2
 632 105 636 110 636 123 c 0
 636 128 635 135 635 143 c 2
 635 305 l 2
 635 332 631 335 614 335 c 0
 609 335 601 335 593 335 c 2
 371 335 l 2
 363 335 356 335 351 335 c 0
 329 335 325 332 325 299 c 2
 325 145 l 2
 325 141 325 137 325 134 c 0
 325 107 327 105 361 105 c 2
 415 105 l 2
 420 105 424 105 427 105 c 0
 442 105 445 103 445 81 c 2
 445 37 l 2
 445 35 445 34 445 32 c 0
 445 1 444 0 409 0 c 2
 69 0 l 2
 61 0 54 0 49 -0 c 0
 34 0 30 3 30 27 c 2
 30 69 l 2
 30 76 30 82 30 86 c 0
 30 102 32 105 57 105 c 2
 107 105 l 2
 137 105 140 109 140 129 c 0
 140 134 140 141 140 149 c 2
 140 607 l 2
 140 642 135 645 112 645 c 0
 106 645 99 645 91 645 c 2
 63 645 l 2
 32 645 30 648 30 670 c 0
 30 674 30 679 30 685 c 2
 30 725 l 2
 30 747 37 751 51 751 c 0
 58 751 68 750 79 750 c 2
 391 750 l 2
 399 750 406 750 412 750 c 0
 432 750 445 747 445 720 c 6
 445 675 l 2
 445 647 442 645 422 645 c 0
 418 645 414 645 409 645 c 2
 355 645 l 2
 327 645 325 642 325 623 c 0
 325 619 325 613 325 607 c 2
EndSplineSet
EndChar

StartChar: I
Encoding: 73 73 20
Width: 495
Flags: HMW
LayerCount: 2
Fore
SplineSet
335 603 m 6
 335 137 l 2
 335 105 335 105 367 105 c 2
 441 105 l 2
 462 105 466 100 466 87 c 0
 466 81 465 74 465 65 c 2
 465 29 l 2
 465 2 462 0 443 -0 c 0
 439 0 435 0 429 0 c 2
 75 0 l 2
 73 0 71 0 69 -0 c 0
 31 0 30 1 30 43 c 2
 30 85 l 2
 30 103 33 105 44 105 c 0
 48 105 53 105 59 105 c 2
 123 105 l 2
 147 105 151 112 151 126 c 0
 151 133 150 141 150 151 c 2
 150 613 l 2
 150 642 145 645 127 645 c 0
 121 645 113 645 103 645 c 2
 65 645 l 2
 62 645 l 0
 31 645 30 645 30 679 c 2
 30 709 l 2
 30 714 30 719 30 723 c 0
 30 747 32 750 65 750 c 2
 425 750 l 2
 434 750 440 751 446 751 c 0
 459 751 465 747 465 725 c 2
 465 673 l 2
 465 647 463 645 443 645 c 0
 440 645 437 645 433 645 c 2
 365 645 l 2
 338 645 335 641 335 624 c 0
 335 619 335 611 335 603 c 6
EndSplineSet
EndChar

StartChar: J
Encoding: 74 74 21
Width: 666
Flags: HMW
LayerCount: 2
Fore
SplineSet
160 120 m 0
 160 103 184 75 236 75 c 0
 307 75 341 110 341 240 c 2
 341 607 l 2
 341 609 341 611 341 613 c 0
 341 644 340 645 305 645 c 2
 253 645 l 2
 224 645 221 649 221 669 c 0
 221 674 221 679 221 685 c 2
 221 723 l 2
 221 749 223 750 243 750 c 0
 245 750 248 750 251 750 c 2
 609 750 l 2
 616 750 622 750 627 750 c 0
 642 750 646 747 646 723 c 2
 646 677 l 2
 646 645 645 645 615 645 c 0
 613 645 l 2
 565 645 l 2
 530 645 526 639 526 617 c 0
 526 610 526 602 526 591 c 6
 526 270 l 2
 526 100 397 -20 236 -20 c 0
 59 -20 0 95 0 185 c 0
 0 267 59 320 119 320 c 0
 176 320 223 284 223 221 c 0
 223 141 160 148 160 120 c 0
EndSplineSet
EndChar

StartChar: K
Encoding: 75 75 22
Width: 940
Flags: HMW
LayerCount: 2
Fore
SplineSet
923 0 m 6
 557 0 l 2
 525 0 525 1 525 33 c 2
 525 65 l 2
 525 73 525 80 525 85 c 0
 525 100 528 105 553 105 c 2
 579 105 l 2
 600 105 607 108 607 113 c 0
 607 120 595 130 586 143 c 2
 466 311 l 2
 454 328 446 335 438 335 c 0
 426 335 416 320 395 301 c 2
 345 257 l 2
 328 242 325 237 325 203 c 2
 325 149 l 2
 325 145 325 142 325 139 c 0
 325 107 327 105 365 105 c 2
 413 105 l 2
 444 105 445 104 445 76 c 0
 445 74 445 73 445 71 c 2
 445 31 l 2
 445 2 442 0 422 -0 c 0
 418 0 413 0 407 0 c 2
 79 0 l 2
 72 0 66 0 61 -0 c 0
 34 0 30 3 30 41 c 2
 30 63 l 2
 30 72 29 80 29 86 c 0
 29 99 33 105 55 105 c 2
 105 105 l 2
 136 105 141 113 141 132 c 0
 141 140 140 150 140 163 c 2
 140 611 l 2
 140 642 136 645 115 645 c 0
 110 645 104 645 97 645 c 2
 69 645 l 2
 32 645 30 647 30 676 c 0
 30 680 30 684 30 689 c 2
 30 719 l 2
 30 749 31 750 58 750 c 0
 60 750 61 750 63 750 c 2
 411 750 l 2
 416 750 420 750 423 750 c 0
 443 750 445 748 445 721 c 2
 445 677 l 2
 445 647 443 645 421 645 c 0
 417 645 412 645 407 645 c 2
 359 645 l 2
 327 645 325 642 325 619 c 0
 325 615 325 610 325 605 c 2
 325 437 l 2
 325 397 327 382 334 382 c 0
 341 382 352 396 371 413 c 2
 595 608 l 2
 609 620 621 630 621 637 c 0
 621 642 613 645 593 645 c 6
 557 645 l 2
 551 645 546 645 542 645 c 0
 523 645 520 647 520 675 c 2
 520 709 l 2
 520 746 526 751 549 751 c 0
 557 751 567 750 579 750 c 2
 861 750 l 2
 869 750 876 750 881 750 c 0
 896 750 900 747 900 723 c 2
 900 673 l 2
 900 645 899 645 873 645 c 0
 871 645 l 2
 835 645 l 2
 776 645 768 632 739 606 c 2
 609 491 l 2
 594 478 588 468 588 460 c 0
 588 448 600 437 616 415 c 2
 821 141 l 2
 839 117 840 105 885 105 c 2
 919 105 l 2
 924 105 929 105 933 105 c 0
 953 105 955 103 955 75 c 2
 955 31 l 2
 955 0 954 0 925 -0 c 0
 924 0 924 0 923 0 c 6
EndSplineSet
EndChar

StartChar: L
Encoding: 76 76 23
Width: 760
Flags: HMW
LayerCount: 2
Fore
SplineSet
108 645 m 6
 56 645 l 2
 33 645 29 652 29 666 c 0
 29 673 30 681 30 692 c 2
 30 728 l 2
 30 748 34 750 46 750 c 0
 51 750 57 750 64 750 c 2
 426 750 l 2
 429 750 l 0
 455 750 455 750 455 722 c 2
 455 684 l 2
 455 682 455 680 455 678 c 0
 455 646 454 645 418 645 c 2
 366 645 l 2
 329 645 324 636 324 614 c 0
 324 605 325 593 325 578 c 2
 325 184 l 2
 325 168 324 155 324 145 c 0
 324 113 331 105 382 105 c 2
 440 105 l 2
 547 105 625 141 638 274 c 0
 641 305 633 315 670 315 c 2
 704 315 l 2
 727 315 731 308 731 294 c 0
 731 287 730 279 730 268 c 2
 730 32 l 2
 730 3 723 -1 706 -1 c 0
 699 -1 691 0 680 0 c 2
 70 0 l 2
 64 0 58 0 53 -0 c 0
 33 0 30 3 30 32 c 2
 30 62 l 2
 30 70 30 77 30 82 c 0
 30 101 33 105 62 105 c 2
 100 105 l 2
 136 105 140 110 140 134 c 0
 140 140 140 148 140 158 c 2
 140 610 l 2
 140 613 140 616 140 618 c 0
 140 644 139 645 108 645 c 6
EndSplineSet
EndChar

StartChar: M
Encoding: 77 77 24
Width: 1145
Flags: HMW
LayerCount: 2
Fore
SplineSet
134 645 m 2
 88 645 l 2
 57 645 55 647 55 671 c 0
 55 674 55 678 55 682 c 2
 55 720 l 2
 55 747 63 751 79 751 c 0
 87 751 98 750 110 750 c 2
 378 750 l 2
 383 750 387 750 391 750 c 0
 414 750 420 748 427 726 c 2
 509 464 l 2
 542 360 540 365 553 312 c 0
 562 273 568 253 575 253 c 0
 581 253 589 271 599 308 c 0
 613 359 614 364 648 456 c 2
 731 682 l 2
 745 719 740 750 794 750 c 2
 1036 750 l 2
 1048 750 1058 751 1066 751 c 0
 1083 751 1090 746 1090 718 c 2
 1090 686 l 2
 1090 684 1090 683 1090 681 c 0
 1090 646 1089 645 1050 645 c 2
 1022 645 l 2
 990 645 985 642 985 624 c 0
 985 617 986 609 986 598 c 2
 1003 170 l 2
 1003 167 1003 164 1003 161 c 0
 1003 153 1003 145 1003 138 c 0
 1003 117 1007 105 1040 105 c 2
 1092 105 l 2
 1117 105 1120 101 1120 85 c 0
 1120 80 1120 74 1120 66 c 2
 1120 38 l 2
 1120 34 1120 30 1120 27 c 0
 1120 2 1118 0 1086 0 c 2
 748 0 l 2
 738 0 731 -1 724 -1 c 0
 712 -1 705 2 705 22 c 2
 705 62 l 2
 705 70 705 76 705 81 c 0
 705 101 708 105 738 105 c 2
 786 105 l 2
 816 105 822 113 822 129 c 0
 822 138 820 149 820 164 c 2
 812 398 l 2
 811 437 810 476 809 516 c 0
 808 557 806 577 802 577 c 0
 798 577 792 557 781 516 c 0
 771 478 762 441 750 406 c 2
 628 44 l 2
 619 19 622 -10 586 -10 c 2
 520 -10 l 2
 517 -10 514 -10 511 -10 c 0
 481 -10 476 -9 467 18 c 2
 351 372 l 2
 334 425 317 478 300 532 c 0
 288 571 280 592 275 592 c 0
 271 592 270 572 269 530 c 0
 268 480 267 430 265 382 c 2
 257 164 l 2
 256 149 254 138 254 129 c 0
 254 112 261 105 294 105 c 2
 340 105 l 2
 346 105 351 105 355 105 c 0
 366 105 370 103 370 84 c 2
 370 40 l 2
 370 32 370 25 370 20 c 0
 370 5 367 0 342 0 c 2
 72 0 l 2
 61 0 53 -1 46 -1 c 0
 32 -1 25 3 25 26 c 2
 25 66 l 2
 25 68 25 70 25 72 c 0
 25 104 26 105 62 105 c 2
 112 105 l 2
 140 105 142 115 142 133 c 0
 142 138 142 143 142 149 c 0
 142 152 142 155 142 158 c 2
 163 598 l 2
 164 610 165 620 165 627 c 0
 165 640 160 645 134 645 c 2
EndSplineSet
EndChar

StartChar: N
Encoding: 78 78 25
Width: 935
Flags: HMW
LayerCount: 2
Fore
SplineSet
102 645 m 6
 57 645 l 2
 33 645 29 651 29 665 c 0
 29 671 30 679 30 688 c 2
 30 712 l 2
 30 750 31 750 67 750 c 0
 69 750 l 2
 273 750 l 2
 321 750 325 739 346 715 c 2
 650 373 l 2
 669 352 684 331 693 331 c 0
 701 331 705 344 705 379 c 6
 705 613 l 2
 705 643 702 645 681 645 c 0
 677 645 672 645 666 645 c 2
 636 645 l 2
 627 645 621 645 615 645 c 0
 600 645 595 648 595 673 c 2
 595 715 l 2
 595 747 599 750 620 750 c 0
 626 750 633 750 642 750 c 2
 891 750 l 2
 899 750 905 751 910 751 c 0
 921 751 925 748 925 730 c 2
 925 688 l 2
 925 645 925 645 882 645 c 2
 858 645 l 2
 851 645 846 645 841 645 c 0
 824 645 820 642 820 616 c 2
 820 34 l 2
 820 24 821 16 821 10 c 0
 821 -3 817 -10 795 -10 c 2
 741 -10 l 2
 703 -10 698 11 681 31 c 2
 295 493 l 2
 278 513 265 536 258 536 c 0
 252 536 250 523 250 487 c 2
 250 160 l 2
 250 153 250 147 250 141 c 0
 250 109 253 105 297 105 c 2
 339 105 l 2
 342 105 345 105 347 105 c 0
 363 105 365 104 365 82 c 2
 365 28 l 2
 365 3 357 -1 341 -1 c 0
 332 -1 322 0 309 0 c 2
 78 0 l 2
 67 0 58 -1 51 -1 c 0
 36 -1 30 3 30 28 c 2
 30 70 l 2
 30 76 30 81 30 85 c 0
 30 101 32 105 57 105 c 2
 99 105 l 2
 131 105 136 114 136 133 c 0
 136 142 135 152 135 166 c 2
 135 598 l 2
 135 608 135 616 135 622 c 0
 135 640 132 645 102 645 c 6
EndSplineSet
EndChar

StartChar: O
Encoding: 79 79 26
Width: 890
Flags: HMW
LayerCount: 2
Fore
SplineSet
45 375 m 0
 45 588 182 770 445 770 c 0
 708 770 845 588 845 375 c 0
 845 162 698 -20 445 -20 c 0
 182 -20 45 162 45 375 c 0
255 375 m 0
 255 193 311 80 445 80 c 0
 589 80 635 193 635 375 c 0
 635 557 579 670 445 670 c 0
 311 670 255 557 255 375 c 0
EndSplineSet
EndChar

StartChar: P
Encoding: 80 80 27
Width: 765
Flags: HMW
LayerCount: 2
Fore
SplineSet
106 645 m 6
 62 645 l 2
 33 645 30 650 30 668 c 0
 30 674 30 682 30 692 c 2
 30 730 l 2
 30 748 40 752 54 752 c 0
 64 752 75 750 86 750 c 2
 425 750 l 2
 626 750 735 680 735 530 c 0
 735 380 626 300 425 300 c 2
 366 300 l 2
 360 300 354 300 350 300 c 0
 328 300 325 297 325 266 c 2
 325 154 l 2
 325 144 324 136 324 129 c 0
 324 111 328 105 358 105 c 2
 422 105 l 2
 452 105 455 100 455 81 c 0
 455 75 455 69 455 60 c 2
 455 28 l 2
 455 3 446 -1 431 -1 c 0
 423 -1 412 0 400 0 c 2
 92 0 l 2
 78 0 66 -1 57 -1 c 0
 39 -1 30 4 30 34 c 2
 30 78 l 2
 30 103 33 105 51 105 c 0
 54 105 58 105 62 105 c 2
 106 105 l 2
 138 105 140 108 140 131 c 0
 140 135 140 140 140 146 c 2
 140 612 l 2
 140 645 139 645 108 645 c 0
 106 645 l 6
366 405 m 6
 415 405 l 2
 491 405 535 441 535 530 c 0
 535 619 491 645 415 645 c 2
 368 645 l 2
 361 645 356 645 351 645 c 0
 329 645 325 642 325 610 c 2
 325 458 l 2
 325 449 325 441 325 435 c 0
 325 410 329 405 366 405 c 6
EndSplineSet
EndChar

StartChar: Q
Encoding: 81 81 28
Width: 890
Flags: HMW
LayerCount: 2
Fore
SplineSet
45 375 m 0
 45 588 182 770 445 770 c 0
 708 770 845 588 845 375 c 0
 845 247 792 130 694 57 c 0
 680 46 666 42 666 33 c 0
 666 29 670 23 678 16 c 0
 687 8 697 3 708 3 c 0
 747 3 770 21 784 49 c 0
 792 65 787 82 812 82 c 2
 866 82 l 2
 881 82 884 78 884 72 c 0
 884 67 883 61 881 53 c 0
 861 -50 786 -145 700 -145 c 0
 629 -145 596 -93 571 -31 c 0
 564 -14 561 -9 552 -9 c 0
 546 -9 538 -12 525 -14 c 4
 500 -18 473 -20 445 -20 c 0
 182 -20 45 162 45 375 c 0
328 122 m 4
 358 95 397 80 445 80 c 0
 466 80 484 83 501 87 c 0
 514 91 519 94 519 99 c 0
 519 105 514 112 507 122 c 0
 484 157 453 180 404 180 c 0
 377 180 354 172 338 160 c 0
 327 152 320 145 320 137 c 0
 320 132 322 127 328 122 c 4
619 209 m 4
 634 254 640 310 640 375 c 0
 640 557 579 670 445 670 c 0
 311 670 250 557 250 375 c 0
 250 329 254 288 262 252 c 0
 267 229 269 220 272 220 c 0
 276 220 280 236 290 256 c 0
 316 308 362 353 432 353 c 0
 509 353 554 284 587 208 c 0
 595 189 600 178 604 178 c 0
 608 178 612 188 619 209 c 4
EndSplineSet
EndChar

StartChar: R
Encoding: 82 82 29
Width: 868
Flags: HMW
LayerCount: 2
Fore
SplineSet
890 98 m 0
 849 32 790 -20 685 -20 c 0
 432 -20 621 320 395 320 c 2
 350 320 l 2
 347 320 344 320 342 320 c 0
 326 320 325 319 325 298 c 2
 325 136 l 2
 325 134 325 133 325 131 c 0
 325 106 326 105 354 105 c 2
 400 105 l 2
 408 105 415 106 420 106 c 0
 430 106 435 103 435 86 c 2
 435 38 l 2
 435 35 435 32 435 30 c 0
 435 1 434 0 400 0 c 2
 58 0 l 2
 32 0 30 2 30 22 c 0
 30 25 30 28 30 32 c 2
 30 74 l 2
 30 77 30 80 30 83 c 0
 30 104 31 105 58 105 c 2
 102 105 l 2
 107 105 111 105 115 105 c 0
 138 105 140 107 140 138 c 2
 140 614 l 2
 140 643 137 645 117 645 c 0
 113 645 108 645 102 645 c 2
 68 645 l 2
 31 645 30 647 30 679 c 0
 30 681 30 683 30 686 c 2
 30 722 l 2
 30 747 35 750 50 750 c 0
 55 750 62 750 70 750 c 2
 465 750 l 2
 686 750 765 665 765 545 c 0
 765 475 724 413 623 388 c 4
 594 381 582 376 582 372 c 0
 582 366 601 360 628 348 c 4
 769 284 694 114 768 114 c 0
 782 114 799 124 816 142 c 0
 830 157 834 166 841 166 c 0
 846 166 852 162 864 152 c 2
 878 141 l 2
 891 130 898 126 898 118 c 0
 898 113 896 107 890 98 c 0
364 430 m 2
 465 430 l 2
 521 430 575 466 575 545 c 0
 575 624 521 645 465 645 c 2
 356 645 l 2
 352 645 349 645 346 645 c 0
 327 645 325 643 325 618 c 2
 325 464 l 2
 325 432 328 430 352 430 c 0
 356 430 359 430 364 430 c 2
EndSplineSet
Substitution2: "'ss01' Style Set 1 lookup 2-1" uniFFFD
EndChar

StartChar: S
Encoding: 83 83 30
Width: 670
Flags: HMW
LayerCount: 2
Fore
SplineSet
529 531 m 4
 505 619 412 664 340 664 c 0
 254 664 216 637 216 588 c 0
 216 438 650 520 650 210 c 0
 650 70 531 -20 350 -20 c 0
 266 -20 207 3 169 35 c 0
 159 43 155 50 151 50 c 0
 148 50 145 46 139 36 c 2
 125 12 l 2
 116 -4 113 -5 87 -5 c 2
 40 -5 l 2
 22 -5 20 -1 20 10 c 0
 20 14 20 19 20 25 c 2
 20 255 l 2
 20 273 24 275 35 275 c 0
 39 275 45 275 52 275 c 2
 92 275 l 2
 124 275 113 261 119 235 c 0
 137 152 213 81 320 81 c 0
 426 81 470 136 470 195 c 0
 470 375 40 259 40 549 c 0
 40 699 179 765 310 765 c 0
 373 765 425 748 464 722 c 0
 480 711 488 699 496 699 c 0
 501 699 505 703 512 713 c 2
 526 735 l 2
 535 749 542 750 561 750 c 0
 564 750 568 750 572 750 c 2
 604 750 l 2
 628 750 630 747 630 730 c 0
 630 727 630 723 630 719 c 2
 630 525 l 2
 630 516 631 510 631 504 c 0
 631 490 627 485 604 485 c 2
 560 485 l 2
 525 485 536 505 529 531 c 4
EndSplineSet
EndChar

StartChar: T
Encoding: 84 84 31
Width: 735
Flags: HMW
LayerCount: 2
Fore
SplineSet
566 0 m 2
 178 0 l 2
 173 0 169 0 166 -0 c 0
 147 0 145 2 145 28 c 2
 145 72 l 2
 145 105 145 105 178 105 c 2
 246 105 l 2
 272 105 275 109 275 126 c 0
 275 131 275 137 275 144 c 2
 275 613 l 6
 275 617 275 621 275 625 c 0
 275 643 273 650 250 650 c 0
 154 650 118 620 111 508 c 0
 109 476 117 465 80 465 c 2
 36 465 l 2
 13 465 9 470 9 484 c 0
 9 490 10 497 10 506 c 2
 10 722 l 2
 10 748 12 750 32 750 c 0
 35 750 38 750 42 750 c 2
 688 750 l 2
 696 750 703 750 708 750 c 0
 721 750 725 747 725 726 c 2
 725 508 l 2
 725 498 726 490 726 484 c 0
 726 471 722 465 700 465 c 2
 652 465 l 2
 626 465 624 473 624 489 c 0
 624 492 624 496 624 500 c 0
 624 503 624 506 624 510 c 0
 617 620 580 650 485 650 c 0
 461 650 460 649 460 630 c 0
 460 628 460 625 460 622 c 2
 460 134 l 2
 460 132 460 131 460 129 c 0
 460 106 461 105 488 105 c 2
 558 105 l 2
 564 105 570 105 574 105 c 0
 587 105 590 103 590 82 c 2
 590 34 l 2
 590 27 590 21 590 17 c 0
 590 4 588 0 566 0 c 2
EndSplineSet
EndChar

StartChar: U
Encoding: 85 85 32
Width: 870
Flags: HMW
LayerCount: 2
Fore
SplineSet
614 645 m 2
 548 645 l 2
 520 645 520 646 520 674 c 2
 520 730 l 2
 520 748 526 751 537 751 c 0
 543 751 549 750 558 750 c 2
 834 750 l 2
 839 750 844 750 848 750 c 0
 863 750 865 748 865 726 c 2
 865 680 l 2
 865 672 866 666 866 661 c 0
 866 650 863 645 844 645 c 2
 786 645 l 2
 780 645 776 645 772 645 c 0
 759 645 755 643 755 622 c 2
 755 300 l 2
 755 95 623 -20 425 -20 c 0
 172 -20 115 117 115 310 c 2
 115 622 l 2
 115 643 112 645 99 645 c 0
 95 645 89 645 82 645 c 2
 28 645 l 2
 7 645 5 648 5 661 c 0
 5 665 5 671 5 678 c 2
 5 736 l 2
 5 749 11 751 20 751 c 0
 26 751 33 750 40 750 c 2
 384 750 l 2
 391 750 397 750 402 750 c 0
 416 750 420 747 420 724 c 2
 420 668 l 2
 420 647 418 645 403 645 c 0
 400 645 396 645 392 645 c 2
 332 645 l 2
 303 645 300 640 300 610 c 6
 300 330 l 2
 300 188 336 92 450 92 c 0
 554 92 645 148 645 300 c 2
 645 618 l 2
 645 643 643 645 624 645 c 0
 621 645 618 645 614 645 c 2
EndSplineSet
EndChar

StartChar: V
Encoding: 86 86 33
Width: 920
Flags: HMW
LayerCount: 2
Fore
SplineSet
533 224 m 4
 545 252 543 258 586 362 c 2
 688 610 l 2
 693 623 698 632 698 637 c 0
 698 644 691 645 666 645 c 2
 644 645 l 2
 641 645 638 645 636 645 c 0
 611 645 610 646 610 676 c 2
 610 718 l 2
 610 747 614 750 633 750 c 0
 638 750 645 750 652 750 c 2
 890 750 l 2
 899 750 907 751 913 751 c 0
 924 751 930 748 930 730 c 2
 930 674 l 2
 930 648 925 645 909 645 c 0
 903 645 897 645 888 645 c 2
 854 645 l 2
 812 645 815 620 803 592 c 2
 565 34 l 2
 551 2 555 -15 506 -15 c 2
 418 -15 l 2
 372 -15 376 7 364 38 c 2
 131 622 l 2
 123 643 114 645 93 645 c 0
 87 645 80 645 72 645 c 2
 18 645 l 2
 -7 645 -10 650 -10 665 c 0
 -10 671 -10 678 -10 686 c 2
 -10 726 l 2
 -10 748 -6 750 7 750 c 0
 11 750 17 750 24 750 c 2
 410 750 l 2
 412 750 413 750 415 750 c 0
 439 750 440 749 440 722 c 2
 440 664 l 2
 440 647 435 644 424 644 c 0
 418 644 410 645 402 645 c 2
 372 645 l 2
 349 645 341 644 341 637 c 0
 341 632 345 625 349 614 c 2
 436 370 l 2
 474 262 463 285 481 230 c 0
 492 195 499 178 506 178 c 0
 513 178 520 193 533 224 c 4
EndSplineSet
EndChar

StartChar: W
Encoding: 87 87 34
Width: 1250
Flags: HMW
LayerCount: 2
Fore
SplineSet
450 270 m 0
 464 303 476 330 487 357 c 2
 574 561 l 2
 579 573 583 580 583 589 c 0
 583 595 581 601 578 609 c 2
 570 630 l 2
 565 644 557 645 540 645 c 0
 536 645 532 645 528 645 c 2
 507 645 l 2
 487 645 484 651 484 663 c 0
 484 669 485 678 485 687 c 2
 485 717 l 2
 485 747 491 751 509 751 c 0
 516 751 524 750 534 750 c 2
 777 750 l 2
 789 750 800 752 810 752 c 0
 825 752 835 748 835 726 c 2
 835 687 l 2
 835 680 835 675 835 670 c 0
 835 648 832 645 801 645 c 0
 792 645 784 645 778 645 c 0
 762 645 755 644 755 635 c 0
 755 630 757 623 760 612 c 2
 835 384 l 2
 854 325 856 319 865 285 c 0
 877 241 881 218 887 218 c 0
 892 218 897 235 909 270 c 4
 923 312 922 311 952 396 c 2
 1021 594 l 2
 1027 612 1032 623 1032 631 c 0
 1032 644 1018 645 975 645 c 0
 937 645 935 648 935 677 c 0
 935 681 935 685 935 690 c 2
 935 708 l 2
 935 748 937 750 971 750 c 0
 974 750 978 750 981 750 c 2
 1221 750 l 2
 1254 750 1255 749 1255 719 c 0
 1255 717 1255 716 1255 714 c 2
 1255 678 l 2
 1255 672 1255 667 1255 663 c 0
 1255 648 1253 645 1230 645 c 2
 1188 645 l 2
 1146 645 1148 636 1138 606 c 2
 945 48 l 2
 932 9 937 -10 882 -10 c 2
 846 -10 l 2
 802 -10 806 3 795 33 c 2
 703 276 l 2
 671 361 672 360 660 405 c 0
 652 437 646 451 641 451 c 0
 636 451 631 438 621 414 c 0
 608 381 602 362 571 288 c 2
 465 36 l 2
 451 2 453 -10 402 -10 c 2
 357 -10 l 2
 322 -10 326 3 317 27 c 2
 109 600 l 2
 98 630 103 645 60 645 c 2
 30 645 l 2
 -3 645 -5 647 -5 673 c 0
 -5 676 -5 680 -5 684 c 2
 -5 726 l 2
 -5 747 4 751 18 751 c 0
 26 751 36 750 48 750 c 2
 339 750 l 2
 349 750 357 751 364 751 c 0
 378 751 385 747 385 723 c 2
 385 675 l 2
 385 647 383 645 361 645 c 0
 358 645 355 645 351 645 c 2
 321 645 l 2
 294 645 286 641 286 632 c 0
 286 623 295 609 301 591 c 2
 380 366 l 2
 393 330 401 297 417 255 c 0
 422 241 426 234 430 234 c 0
 435 234 440 248 450 270 c 0
EndSplineSet
EndChar

StartChar: X
Encoding: 88 88 35
Width: 900
Flags: HMW
LayerCount: 2
Fore
SplineSet
53 750 m 2
 439 750 l 2
 445 750 450 750 454 750 c 0
 472 750 475 748 475 721 c 2
 475 677 l 2
 475 675 475 674 475 672 c 0
 475 646 474 645 445 645 c 2
 407 645 l 2
 386 645 379 643 379 639 c 0
 379 634 388 626 397 615 c 2
 463 531 l 2
 480 509 489 499 498 499 c 0
 507 499 516 510 536 531 c 2
 617 617 l 2
 627 627 638 634 638 639 c 0
 638 643 631 645 611 645 c 2
 579 645 l 2
 547 645 545 647 545 672 c 0
 545 675 545 679 545 683 c 2
 545 727 l 2
 545 747 552 751 565 751 c 0
 572 751 581 750 591 750 c 2
 865 750 l 2
 871 750 876 750 880 750 c 0
 896 750 900 748 900 723 c 2
 900 673 l 2
 900 646 898 645 877 645 c 0
 875 645 872 645 869 645 c 2
 815 645 l 2
 765 645 762 631 739 607 c 2
 592 449 l 2
 576 431 564 423 564 412 c 0
 564 405 568 397 578 385 c 2
 780 129 l 2
 794 111 796 105 831 105 c 2
 881 105 l 2
 898 105 900 101 900 91 c 0
 900 87 900 83 900 77 c 2
 900 37 l 2
 900 2 897 0 871 -0 c 0
 867 0 862 0 857 0 c 2
 509 0 l 2
 499 0 491 0 485 -0 c 0
 466 0 460 3 460 35 c 2
 460 71 l 2
 460 105 461 105 493 105 c 0
 494 105 494 105 495 105 c 2
 541 105 l 2
 555 105 559 108 559 112 c 0
 559 119 544 131 536 141 c 2
 444 259 l 2
 429 278 422 288 414 288 c 0
 407 288 399 279 384 263 c 2
 257 126 l 2
 250 119 247 114 247 111 c 0
 247 105 258 105 284 105 c 2
 302 105 l 2
 309 105 314 105 319 105 c 0
 336 105 340 102 340 76 c 2
 340 32 l 2
 340 2 338 0 314 -0 c 0
 311 0 308 0 304 0 c 2
 34 0 l 2
 3 0 0 3 -0 25 c 0
 0 30 0 36 0 42 c 2
 0 78 l 2
 0 80 0 81 -0 83 c 0
 0 104 1 105 26 105 c 2
 76 105 l 2
 121 105 130 131 151 154 c 2
 317 331 l 2
 336 352 346 361 346 373 c 0
 346 382 339 393 325 411 c 2
 166 615 l 2
 147 639 143 645 97 645 c 2
 39 645 l 2
 6 645 5 646 5 676 c 0
 5 678 5 679 5 681 c 2
 5 725 l 2
 5 747 12 751 26 751 c 0
 33 751 42 750 53 750 c 2
EndSplineSet
EndChar

StartChar: Y
Encoding: 89 89 36
Width: 845
Flags: HMW
LayerCount: 2
Fore
SplineSet
23 750 m 6
 395 750 l 2
 403 750 409 751 414 751 c 0
 425 751 430 748 430 730 c 2
 430 684 l 2
 430 680 430 676 430 673 c 0
 430 647 428 645 395 645 c 2
 377 645 l 2
 360 645 354 642 354 638 c 0
 354 633 362 625 368 614 c 2
 439 490 l 2
 446 478 453 462 459 449 c 0
 466 432 470 424 475 424 c 0
 479 424 484 431 492 446 c 0
 498 458 507 474 514 485 c 2
 602 616 l 2
 609 626 618 634 618 639 c 0
 618 643 611 645 593 645 c 2
 559 645 l 2
 537 645 535 648 535 663 c 0
 535 667 535 671 535 676 c 2
 535 724 l 2
 535 747 540 750 554 750 c 0
 559 750 565 750 573 750 c 2
 815 750 l 2
 822 750 828 750 833 750 c 0
 851 750 855 747 855 720 c 2
 855 686 l 2
 855 683 855 680 855 678 c 0
 855 646 854 645 817 645 c 2
 777 645 l 2
 730 645 729 627 711 600 c 2
 556 370 l 2
 537 342 530 329 530 278 c 2
 530 142 l 2
 530 106 531 105 564 105 c 0
 566 105 567 105 569 105 c 2
 617 105 l 2
 650 105 650 105 650 72 c 2
 650 34 l 2
 650 28 650 24 650 20 c 0
 650 3 648 0 623 0 c 2
 273 0 l 2
 267 0 261 0 257 -0 c 0
 239 0 235 3 235 30 c 2
 235 72 l 2
 235 74 235 75 235 77 c 0
 235 104 236 105 267 105 c 2
 313 105 l 2
 343 105 345 107 345 130 c 0
 345 134 345 137 345 142 c 2
 345 242 l 2
 345 287 333 298 317 324 c 2
 142 604 l 2
 126 629 126 645 83 645 c 2
 33 645 l 2
 24 645 18 645 12 645 c 0
 -5 645 -10 648 -10 676 c 2
 -10 714 l 2
 -10 717 -10 720 -10 722 c 0
 -10 749 -9 750 23 750 c 6
EndSplineSet
EndChar

StartChar: Z
Encoding: 90 90 37
Width: 775
Flags: HMW
LayerCount: 2
Fore
SplineSet
55 538 m 2
 55 710 l 2
 55 748 58 750 86 750 c 0
 90 750 95 750 101 750 c 2
 671 750 l 2
 675 750 679 750 682 750 c 0
 703 750 705 748 705 720 c 2
 705 650 l 2
 705 606 692 601 672 580 c 2
 267 150 l 2
 252 134 242 123 242 116 c 0
 242 108 255 105 287 105 c 6
 485 105 l 2
 566 105 613 129 627 200 c 0
 639 259 629 285 663 285 c 2
 707 285 l 2
 732 285 736 279 736 264 c 0
 736 257 735 248 735 238 c 2
 735 48 l 2
 735 1 734 0 690 -0 c 0
 688 0 687 0 685 0 c 2
 57 0 l 2
 27 0 25 2 25 26 c 0
 25 29 25 32 25 36 c 2
 25 96 l 2
 25 142 37 148 58 170 c 2
 469 606 l 2
 485 623 496 632 496 638 c 0
 496 644 481 645 441 645 c 2
 305 645 l 2
 213 645 169 613 158 530 c 0
 154 500 164 485 127 485 c 2
 83 485 l 2
 58 485 54 493 54 508 c 0
 54 516 55 526 55 538 c 2
EndSplineSet
EndChar

StartChar: a
Encoding: 97 97 38
Width: 651
VWidth: 1155
Flags: HMW
LayerCount: 2
Fore
SplineSet
229 374 m 0
 229 330 188 300 134 300 c 0
 78 300 45 329 45 383 c 0
 45 470 157 535 288 535 c 0
 438 535 516 493 516 352 c 2
 516 126 l 2
 516 106 528 82 552 82 c 0
 566 82 575 93 583 109 c 0
 590 122 594 128 599 128 c 0
 603 128 609 124 620 118 c 2
 635 110 l 2
 647 103 652 98 652 91 c 0
 652 85 649 78 643 67 c 0
 611 2 569 -15 496 -15 c 0
 447 -15 402 3 378 32 c 4
 370 41 367 46 362 46 c 0
 358 46 352 41 340 30 c 0
 306 0 259 -15 200 -15 c 0
 81 -15 15 34 15 128 c 0
 15 222 102 294 314 294 c 0
 315 294 316 294 317 294 c 0
 345 294 346 294 346 325 c 6
 346 362 l 2
 346 429 313 464 263 464 c 0
 239 464 207 457 207 444 c 0
 207 431 229 422 229 374 c 0
322 229 m 4
 226 225 202 177 202 141 c 0
 202 104 225 79 260 79 c 0
 308 79 346 123 346 194 c 2
 346 213 l 2
 346 227 343 229 335 229 c 0
 332 229 327 229 322 229 c 4
EndSplineSet
EndChar

StartChar: b
Encoding: 98 98 39
Width: 688
VWidth: 1155
Flags: HMW
LayerCount: 2
Fore
SplineSet
61 695 m 6
 38 695 l 2
 35 695 32 695 30 695 c 0
 6 695 5 696 5 725 c 2
 5 750 l 2
 5 777 13 781 29 781 c 0
 37 781 46 780 58 780 c 2
 207 780 l 2
 216 780 223 780 229 780 c 0
 260 780 265 776 265 732 c 2
 265 492 l 2
 265 457 266 445 269 445 c 0
 273 445 281 466 297 484 c 0
 327 518 371 539 431 539 c 0
 560 539 653 440 653 260 c 0
 653 80 550 -20 421 -20 c 0
 361 -20 313 3 289 42 c 4
 279 58 273 76 269 76 c 0
 266 76 265 67 265 41 c 0
 265 2 263 0 230 -0 c 0
 227 0 223 0 220 0 c 2
 46 0 l 2
 39 0 33 0 28 -0 c 0
 9 0 5 3 5 32 c 2
 5 51 l 2
 5 85 6 85 38 85 c 0
 39 85 39 85 40 85 c 2
 67 85 l 2
 92 85 96 91 96 106 c 0
 96 112 95 120 95 130 c 2
 95 660 l 2
 95 662 95 663 95 665 c 0
 95 694 94 695 61 695 c 6
265 260 m 0
 265 166 302 82 373 82 c 0
 437 82 473 166 473 260 c 0
 473 354 437 438 373 438 c 0
 302 438 265 354 265 260 c 0
EndSplineSet
EndChar

StartChar: c
Encoding: 99 99 40
Width: 605
VWidth: 1155
Flags: HMW
LayerCount: 2
Fore
SplineSet
575 373 m 0
 575 305 520 260 471 260 c 0
 414 260 374 296 374 353 c 0
 374 399 417 406 417 428 c 0
 417 446 392 464 354 464 c 0
 269 464 230 384 230 270 c 0
 230 156 241 59 340 59 c 0
 395 59 435 84 461 143 c 0
 469 161 465 173 493 173 c 2
 525 173 l 6
 549 173 559 173 559 162 c 0
 559 158 558 153 556 147 c 0
 526 52 457 -20 328 -20 c 0
 117 -20 35 110 35 250 c 0
 35 400 133 540 344 540 c 0
 486 540 575 450 575 373 c 0
EndSplineSet
EndChar

StartChar: d
Encoding: 100 100 41
Width: 688
VWidth: 1155
Flags: HMW
LayerCount: 2
Fore
SplineSet
683 59 m 2
 683 31 l 2
 683 1 682 0 655 -0 c 0
 653 0 652 0 650 0 c 2
 461 0 l 2
 426 0 423 4 423 29 c 0
 423 34 423 39 423 46 c 0
 423 69 422 77 419 77 c 0
 415 77 409 60 399 46 c 4
 370 5 330 -20 267 -20 c 0
 138 -20 35 80 35 260 c 0
 35 440 148 539 277 539 c 0
 330 539 367 521 394 491 c 4
 407 477 415 463 419 463 c 0
 422 463 423 470 423 491 c 6
 423 663 l 2
 423 665 423 666 423 668 c 0
 423 694 422 695 393 695 c 2
 369 695 l 2
 366 695 363 695 361 695 c 0
 334 695 333 696 333 728 c 2
 333 750 l 2
 333 777 340 781 356 781 c 0
 363 781 372 780 383 780 c 2
 550 780 l 2
 593 780 593 779 593 736 c 2
 593 121 l 2
 593 115 593 109 593 105 c 0
 593 88 595 85 621 85 c 2
 649 85 l 2
 655 85 660 85 664 85 c 0
 680 85 683 83 683 59 c 2
423 260 m 0
 423 354 386 438 315 438 c 0
 251 438 215 354 215 260 c 0
 215 166 251 82 315 82 c 0
 386 82 423 166 423 260 c 0
EndSplineSet
EndChar

StartChar: e
Encoding: 101 101 42
Width: 609
VWidth: 1155
Flags: HMW
LayerCount: 2
Fore
SplineSet
528 246 m 6
 254 246 l 2
 224 246 217 246 217 227 c 0
 217 223 217 218 218 211 c 0
 225 124 252 69 325 69 c 0
 369 69 417 93 446 140 c 0
 459 161 454 173 490 173 c 2
 528 173 l 6
 546 173 553 170 553 160 c 0
 553 155 551 149 548 141 c 0
 513 49 431 -20 313 -20 c 0
 132 -20 35 110 35 250 c 0
 35 410 139 540 320 540 c 0
 515 540 561 409 568 289 c 0
 568 285 568 281 568 278 c 0
 568 247 557 246 528 246 c 6
395 367 m 4
 388 421 369 461 319 461 c 0
 268 461 239 425 226 371 c 0
 223 359 222 351 222 345 c 0
 222 330 233 329 266 329 c 2
 354 329 l 2
 356 329 359 329 361 329 c 0
 388 329 397 330 397 348 c 0
 397 353 396 359 395 367 c 4
EndSplineSet
EndChar

StartChar: f
Encoding: 102 102 43
Width: 445
VWidth: 1155
Flags: HMW
LayerCount: 2
Fore
SplineSet
280 396 m 2
 280 128 l 2
 280 126 280 124 280 122 c 0
 280 86 281 85 321 85 c 2
 371 85 l 2
 400 85 400 85 400 56 c 2
 400 24 l 2
 400 3 395 -1 382 -1 c 0
 376 -1 370 0 361 0 c 2
 67 0 l 2
 57 0 48 -1 41 -1 c 0
 26 -1 20 3 20 28 c 2
 20 58 l 2
 20 83 22 85 41 85 c 0
 44 85 47 85 51 85 c 2
 81 85 l 2
 107 85 110 89 110 106 c 0
 110 111 110 117 110 124 c 2
 110 394 l 2
 110 399 110 404 110 408 c 0
 110 432 108 435 75 435 c 2
 53 435 l 2
 48 435 44 435 40 435 c 0
 23 435 20 437 20 462 c 2
 20 500 l 2
 20 518 22 520 35 520 c 0
 38 520 41 520 45 520 c 2
 87 520 l 2
 108 520 111 528 111 542 c 0
 111 550 110 561 110 572 c 0
 110 703 207 800 357 800 c 0
 488 800 580 751 580 664 c 0
 580 594 535 563 483 563 c 4
 421 563 383 591 383 646 c 0
 383 693 413 698 413 709 c 0
 413 717 401 725 379 725 c 0
 299 725 280 677 280 550 c 0
 280 523 284 520 301 520 c 0
 306 520 313 520 321 520 c 2
 393 520 l 2
 396 520 399 520 401 520 c 0
 418 520 420 519 420 496 c 2
 420 464 l 2
 420 436 419 435 394 435 c 0
 392 435 391 435 389 435 c 2
 321 435 l 2
 319 435 317 435 315 435 c 0
 281 435 280 434 280 396 c 2
EndSplineSet
EndChar

StartChar: g
Encoding: 103 103 44
Width: 697
VWidth: 1155
Flags: HMW
LayerCount: 2
Fore
SplineSet
225 345 m 0
 225 271 240 220 289 220 c 0
 338 220 353 271 353 345 c 0
 353 419 338 470 289 470 c 0
 240 470 225 419 225 345 c 0
50 345 m 0
 50 455 138 540 289 540 c 0
 348 540 397 527 435 505 c 0
 451 496 458 492 464 492 c 0
 473 492 477 502 498 517 c 0
 519 532 544 540 573 540 c 0
 654 540 697 506 697 444 c 0
 697 395 664 364 624 364 c 0
 581 364 561 393 561 423 c 0
 561 457 590 463 590 472 c 0
 590 479 585 482 574 482 c 0
 559 482 540 472 524 453 c 0
 516 443 512 436 512 429 c 0
 512 422 515 415 519 404 c 0
 525 385 528 366 528 345 c 0
 528 235 440 150 289 150 c 0
 275 150 262 151 250 152 c 0
 241 153 234 154 227 154 c 0
 216 154 208 152 197 147 c 0
 181 139 170 130 170 121 c 0
 170 100 187 99 242 99 c 0
 267 99 385 100 413 100 c 0
 528 100 600 54 600 -62 c 0
 600 -203 460 -265 280 -265 c 0
 97 -265 5 -220 5 -135 c 0
 5 -89 38 -52 76 -27 c 0
 96 -14 104 -10 104 -6 c 0
 104 -2 96 3 82 18 c 0
 66 35 57 57 57 84 c 0
 57 112 74 138 102 159 c 0
 123 175 135 179 135 184 c 0
 135 189 127 194 109 210 c 4
 71 245 50 292 50 345 c 0
449 -97 m 0
 449 -53 415 -39 350 -39 c 0
 329 -39 278 -39 256 -39 c 0
 241 -39 225 -38 210 -36 c 0
 203 -35 198 -35 193 -35 c 0
 178 -35 174 -41 167 -60 c 4
 162 -73 160 -87 160 -102 c 0
 160 -160 220 -183 296 -183 c 0
 380 -183 449 -159 449 -97 c 0
EndSplineSet
EndChar

StartChar: h
Encoding: 104 104 45
Width: 720
VWidth: 1155
Flags: HMW
LayerCount: 2
Fore
SplineSet
60 695 m 6
 40 695 l 2
 35 695 31 695 27 695 c 0
 8 695 5 697 5 724 c 2
 5 742 l 2
 5 745 5 748 5 750 c 0
 5 779 6 780 40 780 c 2
 228 780 l 2
 263 780 265 778 265 751 c 0
 265 747 265 743 265 738 c 2
 265 492 l 2
 265 463 267 453 270 453 c 0
 275 453 283 471 298 486 c 0
 332 518 380 540 448 540 c 0
 565 540 610 476 610 369 c 2
 610 120 l 2
 610 115 610 111 610 108 c 0
 610 88 612 85 640 85 c 2
 678 85 l 2
 698 85 700 82 700 69 c 0
 700 65 700 61 700 56 c 2
 700 28 l 2
 700 1 699 0 675 -0 c 0
 673 0 672 0 670 0 c 2
 400 0 l 2
 373 0 370 4 370 22 c 0
 370 27 370 33 370 40 c 2
 370 60 l 2
 370 84 369 85 394 85 c 2
 414 85 l 2
 439 85 440 87 440 106 c 0
 440 108 440 111 440 114 c 2
 440 353 l 2
 440 417 426 443 375 443 c 0
 307 443 265 386 265 283 c 2
 265 122 l 2
 265 118 265 114 265 111 c 0
 265 87 267 85 298 85 c 2
 310 85 l 2
 333 85 335 83 335 66 c 0
 335 63 335 60 335 56 c 2
 335 32 l 2
 335 30 335 29 335 27 c 0
 335 1 334 0 304 0 c 2
 40 0 l 2
 37 0 34 0 32 -0 c 0
 6 0 5 1 5 32 c 2
 5 54 l 2
 5 58 5 61 5 64 c 0
 5 83 7 85 32 85 c 2
 56 85 l 2
 60 85 64 85 67 85 c 0
 93 85 95 87 95 120 c 2
 95 664 l 2
 95 693 93 695 70 695 c 0
 67 695 64 695 60 695 c 6
EndSplineSet
EndChar

StartChar: i
Encoding: 105 105 46
Width: 370
VWidth: 1155
Flags: HMW
LayerCount: 2
Fore
SplineSet
85 700 m 0
 85 752 130 795 185 795 c 0
 240 795 285 752 285 700 c 0
 285 648 240 605 185 605 c 0
 130 605 85 648 85 700 c 0
74 435 m 2
 46 435 l 2
 42 435 39 435 36 435 c 0
 17 435 15 437 15 462 c 2
 15 494 l 2
 15 517 21 521 35 521 c 0
 41 521 49 520 58 520 c 2
 244 520 l 2
 272 520 275 516 275 498 c 0
 275 493 275 486 275 478 c 2
 275 124 l 2
 275 116 275 109 275 104 c 0
 275 89 278 85 302 85 c 2
 338 85 l 2
 365 85 365 85 365 58 c 2
 365 28 l 2
 365 25 365 22 365 20 c 0
 365 2 364 0 340 0 c 2
 44 0 l 2
 38 0 33 0 29 -0 c 0
 18 0 15 2 15 20 c 2
 15 50 l 2
 15 57 15 62 15 67 c 0
 15 81 17 85 40 85 c 2
 72 85 l 2
 102 85 105 89 105 109 c 0
 105 114 105 120 105 128 c 2
 105 402 l 2
 105 404 105 405 105 407 c 0
 105 434 104 435 74 435 c 2
EndSplineSet
EndChar

StartChar: j
Encoding: 106 106 47
Width: 340
VWidth: 1155
Flags: HMW
LayerCount: 2
Fore
SplineSet
90 700 m 0
 90 752 135 795 190 795 c 0
 245 795 290 752 290 700 c 0
 290 648 245 605 190 605 c 0
 135 605 90 648 90 700 c 0
52 520 m 2
 246 520 l 2
 249 520 252 520 255 520 c 0
 278 520 280 518 280 481 c 2
 280 -32 l 2
 280 -163 183 -260 43 -260 c 0
 -78 -260 -150 -211 -150 -134 c 4
 -150 -74 -105 -33 -53 -33 c 4
 9 -33 47 -61 47 -116 c 0
 47 -163 27 -161 27 -172 c 0
 27 -180 33 -185 51 -185 c 0
 103 -185 112 -130 112 -56 c 0
 112 -17 110 26 110 70 c 2
 110 411 l 2
 110 435 106 435 84 435 c 0
 82 435 l 2
 46 435 l 2
 45 435 45 435 44 435 c 0
 26 435 20 435 20 460 c 2
 20 486 l 2
 20 488 20 489 20 491 c 0
 20 518 21 520 52 520 c 2
EndSplineSet
EndChar

StartChar: k
Encoding: 107 107 48
Width: 706
VWidth: 1155
Flags: HMW
LayerCount: 2
Fore
SplineSet
63.9951171875 695 m 2
 33.9951171875 695 l 2
 6.9951171875 695 4.9951171875 697 4.9951171875 718 c 0
 4.9951171875 721 4.9951171875 724 4.9951171875 728 c 2
 4.9951171875 756 l 2
 4.9951171875 778 6.9951171875 780 22.9951171875 780 c 0
 25.9951171875 780 29.9951171875 780 33.9951171875 780 c 2
 231.995117188 780 l 2
 263.995117188 780 264.995117188 778 264.995117188 751 c 0
 264.995117188 749 264.995117188 747 264.995117188 744 c 2
 264.995117188 334 l 2
 264.995117188 330 264.995117188 326 264.995117188 323 c 0
 264.995117188 310 264.995117188 303 269.995117188 303 c 0
 273.995117188 303 280.995117188 307 291.995117188 315 c 2
 425.995117188 407 l 2
 436.995117188 414 442.995117188 418 442.995117188 421 c 0
 442.995117188 424 433.995117188 425 415.995117188 425 c 6
 391.995117188 425 l 2
 363.995117188 425 363.995117188 426 363.995117188 454 c 2
 363.995117188 496 l 2
 363.995117188 518 365.995117188 520 382.995117188 520 c 0
 385.995117188 520 387.995117188 520 391.995117188 520 c 2
 647.995117188 520 l 2
 652.995117188 520 656.995117188 520 660.995117188 520 c 0
 673.995117188 520 676.995117188 518 676.995117188 498 c 2
 676.995117188 454 l 2
 676.995117188 426 675.995117188 425 650.995117188 425 c 0
 648.995117188 425 647.995117188 425 645.995117188 425 c 2
 623.995117188 425 l 2
 596.995117188 425 589.995117188 421 575.995117188 411 c 2
 467.995117188 333 l 2
 451.995117188 321 442.995117188 316 442.995117188 309 c 0
 442.995117188 304 447.995117188 298 458.995117188 286 c 2
 615.995117188 114 l 2
 630.995117188 98 633.995117188 85 665.995117188 85 c 2
 687.995117188 85 l 2
 708.995117188 85 710.995117188 83 710.995117188 67 c 0
 710.995117188 64 710.995117188 62 710.995117188 58 c 2
 710.995117188 26 l 2
 710.995117188 1 711.995117188 0 685.995117188 0 c 2
 399.995117188 0 l 2
 393.995117188 0 387.995117188 0 383.995117188 0 c 0
 366.995117188 0 363.995117188 2 363.995117188 28 c 2
 363.995117188 60 l 2
 363.995117188 65 363.995117188 69 363.995117188 72 c 0
 363.995117188 82 365.995117188 85 381.995117188 85 c 2
 411.995117188 85 l 2
 423.995117188 85 428.995117188 87 428.995117188 91 c 0
 428.995117188 98 411.995117188 109 404.995117188 118 c 2
 293.995117188 248 l 6
 280.995117188 263 273.995117188 273 269.995117188 273 c 0
 265.995117188 273 264.995117188 264 264.995117188 242 c 2
 264.995117188 124 l 2
 264.995117188 115 263.995117188 109 263.995117188 103 c 0
 263.995117188 91 267.995117188 85 287.995117188 85 c 2
 299.995117188 85 l 2
 301.995117188 85 302.995117188 85 304.995117188 85 c 0
 323.995117188 85 324.995117188 84 324.995117188 62 c 2
 324.995117188 26 l 2
 324.995117188 2 321.995117188 0 305.995117188 0 c 0
 301.995117188 0 296.995117188 0 291.995117188 0 c 2
 33.9951171875 0 l 2
 29.9951171875 0 25.9951171875 0 22.9951171875 0 c 0
 6.9951171875 0 4.9951171875 2 4.9951171875 24 c 2
 4.9951171875 46 l 2
 4.9951171875 55 3.9951171875 61 3.9951171875 67 c 0
 3.9951171875 79 7.9951171875 85 27.9951171875 85 c 2
 65.9951171875 85 l 2
 92.9951171875 85 94.9951171875 88 94.9951171875 106 c 0
 94.9951171875 110 94.9951171875 116 94.9951171875 122 c 2
 94.9951171875 672 l 2
 94.9951171875 693 91.9951171875 695 77.9951171875 695 c 0
 73.9951171875 695 69.9951171875 695 63.9951171875 695 c 2
EndSplineSet
EndChar

StartChar: l
Encoding: 108 108 49
Width: 360
VWidth: 1155
Flags: HMW
LayerCount: 2
Fore
SplineSet
59 695 m 2
 35 695 l 2
 32 695 30 695 27 695 c 0
 7 695 5 696 5 722 c 2
 5 756 l 2
 5 778 8 780 23 780 c 0
 26 780 30 780 35 780 c 2
 220 780 l 6
 226 780 232 780 237 780 c 0
 256 780 265 778 265 752 c 2
 265 118 l 2
 265 113 265 109 265 106 c 0
 265 87 267 85 293 85 c 2
 325 85 l 2
 328 85 330 85 333 85 c 0
 353 85 355 84 355 58 c 2
 355 22 l 2
 355 2 351 0 339 -0 c 0
 335 0 331 0 325 0 c 2
 53 0 l 2
 43 0 35 -1 28 -1 c 0
 11 -1 5 3 5 32 c 2
 5 52 l 2
 5 54 5 55 5 57 c 0
 5 84 6 85 37 85 c 2
 65 85 l 2
 95 85 95 86 95 116 c 2
 95 662 l 2
 95 694 93 695 66 695 c 0
 64 695 62 695 59 695 c 2
EndSplineSet
EndChar

StartChar: m
Encoding: 109 109 50
Width: 1023
VWidth: 1155
Flags: HMW
LayerCount: 2
Fore
SplineSet
100 118 m 6
 100 416 l 2
 100 419 100 422 100 424 c 0
 100 443 99 445 74 445 c 2
 52 445 l 2
 21 445 20 447 20 473 c 0
 20 475 20 477 20 480 c 2
 20 494 l 2
 20 518 22 520 39 520 c 0
 43 520 47 520 52 520 c 2
 232 520 l 2
 238 520 243 520 247 520 c 0
 257 520 260 518 260 502 c 2
 260 480 l 6
 260 464 261 457 264 457 c 0
 267 457 272 464 281 476 c 0
 310 514 355 540 424 540 c 0
 494 540 540 520 566 484 c 0
 581 463 586 454 590 454 c 0
 595 454 598 469 620 491 c 0
 649 521 691 540 750 540 c 0
 877 540 922 476 922 369 c 2
 922 110 l 2
 922 107 922 104 922 102 c 0
 922 76 923 75 954 75 c 2
 976 75 l 2
 978 75 979 75 981 75 c 0
 1002 75 1003 74 1003 50 c 2
 1003 30 l 2
 1003 1 1001 0 977 -0 c 0
 975 0 973 0 970 0 c 2
 718 0 l 2
 709 0 703 -1 697 -1 c 0
 684 -1 679 3 679 24 c 2
 679 48 l 2
 679 73 681 75 700 75 c 0
 703 75 706 75 710 75 c 2
 726 75 l 2
 750 75 752 79 752 94 c 0
 752 98 752 104 752 110 c 2
 752 358 l 2
 752 412 743 448 697 448 c 0
 629 448 596 386 596 283 c 2
 596 108 l 2
 596 102 596 98 596 94 c 0
 596 78 598 75 622 75 c 0
 628 75 633 75 637 75 c 0
 653 75 657 73 657 48 c 2
 657 36 l 2
 657 0 656 0 622 -0 c 0
 621 0 621 0 620 0 c 2
 406 0 l 2
 398 0 391 0 386 -0 c 0
 371 0 366 3 366 28 c 2
 366 46 l 2
 366 75 367 75 394 75 c 0
 395 75 395 75 396 75 c 0
 425 75 426 77 426 101 c 0
 426 103 426 105 426 108 c 2
 426 358 l 2
 426 412 417 448 371 448 c 0
 293 448 270 386 270 283 c 2
 270 112 l 2
 270 107 270 104 270 100 c 0
 270 78 272 75 302 75 c 2
 318 75 l 2
 342 75 343 74 343 53 c 0
 343 51 343 50 343 48 c 2
 343 36 l 2
 343 0 342 0 308 -0 c 0
 307 0 307 0 306 0 c 2
 56 0 l 2
 48 0 41 -1 36 -1 c 0
 24 -1 20 2 20 22 c 2
 20 42 l 2
 20 47 20 51 20 54 c 0
 20 73 22 75 48 75 c 2
 68 75 l 2
 97 75 100 79 100 98 c 0
 100 103 100 110 100 118 c 6
EndSplineSet
EndChar

StartChar: n
Encoding: 110 110 51
Width: 735
VWidth: 1155
Flags: HMW
LayerCount: 2
Fore
SplineSet
110 128 m 2
 110 402 l 2
 110 405 110 408 110 410 c 0
 110 434 109 435 80 435 c 2
 50 435 l 2
 47 435 45 435 42 435 c 0
 22 435 20 436 20 462 c 2
 20 496 l 2
 20 518 23 520 37 520 c 0
 41 520 46 520 52 520 c 2
 226 520 l 2
 236 520 243 521 249 521 c 0
 264 521 270 517 270 492 c 2
 270 464 l 6
 270 449 272 443 275 443 c 0
 280 443 289 459 300 472 c 0
 334 512 385 540 463 540 c 0
 580 540 625 476 625 369 c 2
 625 126 l 2
 625 121 625 116 625 112 c 0
 625 88 627 85 660 85 c 2
 678 85 l 2
 684 85 690 85 694 85 c 0
 712 85 715 83 715 56 c 2
 715 30 l 2
 715 2 713 0 692 -0 c 0
 689 0 684 0 680 0 c 2
 426 0 l 2
 420 0 414 0 410 -0 c 0
 388 0 385 3 385 34 c 2
 385 56 l 2
 385 60 385 63 385 66 c 0
 385 83 387 85 410 85 c 2
 426 85 l 2
 452 85 456 94 456 110 c 0
 456 119 455 129 455 142 c 2
 455 353 l 2
 455 417 441 443 390 443 c 0
 322 443 280 386 280 283 c 2
 280 130 l 2
 280 120 279 112 279 106 c 0
 279 91 283 85 308 85 c 2
 322 85 l 2
 325 85 328 85 330 85 c 0
 348 85 350 84 350 60 c 2
 350 34 l 2
 350 2 347 0 324 -0 c 0
 320 0 315 0 310 0 c 2
 54 0 l 2
 20 0 20 0 20 34 c 2
 20 56 l 2
 20 58 20 59 20 61 c 0
 20 84 21 85 48 85 c 2
 78 85 l 2
 107 85 110 89 110 108 c 0
 110 113 110 120 110 128 c 2
EndSplineSet
EndChar

StartChar: o
Encoding: 111 111 52
Width: 628
VWidth: 1155
Flags: HMW
LayerCount: 2
Fore
SplineSet
35 245 m 0
 35 405 123 540 314 540 c 0
 505 540 593 410 593 270 c 0
 593 110 505 -20 314 -20 c 0
 123 -20 35 105 35 245 c 0
220 270 m 0
 220 146 245 60 314 60 c 0
 383 60 408 146 408 250 c 0
 408 374 383 460 314 460 c 0
 245 460 220 374 220 270 c 0
EndSplineSet
EndChar

StartChar: p
Encoding: 112 112 53
Width: 688
VWidth: 1155
Flags: HMW
LayerCount: 2
Fore
SplineSet
63 435 m 2
 32 435 l 2
 8 435 5 440 5 455 c 0
 5 460 5 467 5 475 c 2
 5 494 l 2
 5 518 8 520 24 520 c 0
 28 520 33 520 38 520 c 2
 238 520 l 2
 243 520 248 520 252 520 c 0
 262 520 265 518 265 501 c 2
 265 473 l 2
 265 453 267 445 272 445 c 0
 277 445 284 453 295 467 c 4
 326 507 369 539 431 539 c 0
 560 539 653 440 653 260 c 0
 653 80 550 -20 421 -20 c 0
 368 -20 329 -2 301 28 c 0
 286 44 276 70 270 70 c 0
 267 70 265 61 265 37 c 2
 265 -121 l 2
 265 -131 264 -138 264 -144 c 0
 264 -159 268 -165 293 -165 c 2
 320 -165 l 2
 324 -165 328 -165 331 -165 c 0
 353 -165 355 -167 355 -196 c 2
 355 -218 l 2
 355 -250 354 -250 324 -250 c 0
 323 -250 323 -250 322 -250 c 2
 42 -250 l 2
 36 -250 30 -250 26 -250 c 0
 8 -250 5 -248 5 -221 c 2
 5 -194 l 2
 5 -168 8 -165 26 -165 c 0
 31 -165 36 -165 43 -165 c 2
 67 -165 l 2
 93 -165 95 -161 95 -144 c 0
 95 -140 95 -135 95 -129 c 2
 95 405 l 2
 95 434 94 435 68 435 c 0
 66 435 65 435 63 435 c 2
265 260 m 0
 265 166 302 82 373 82 c 0
 437 82 473 166 473 260 c 0
 473 354 437 438 373 438 c 0
 302 438 265 354 265 260 c 0
EndSplineSet
EndChar

StartChar: q
Encoding: 113 113 54
Width: 688
VWidth: 1155
Flags: HMW
LayerCount: 2
Fore
SplineSet
683 496 m 2
 683 466 l 2
 683 461 683 457 683 453 c 0
 683 437 681 435 658 435 c 2
 632 435 l 2
 626 435 621 435 616 435 c 0
 597 435 593 432 593 404 c 2
 593 -122 l 2
 593 -127 593 -131 593 -135 c 0
 593 -162 595 -165 631 -165 c 2
 651 -165 l 2
 652 -165 653 -165 654 -165 c 0
 682 -165 683 -165 683 -196 c 2
 683 -214 l 2
 683 -250 683 -250 647 -250 c 2
 371 -250 l 2
 369 -250 367 -250 365 -250 c 0
 334 -250 333 -249 333 -214 c 2
 333 -196 l 2
 333 -194 333 -193 333 -191 c 0
 333 -166 334 -165 363 -165 c 2
 395 -165 l 2
 420 -165 423 -161 423 -145 c 0
 423 -140 423 -134 423 -126 c 2
 423 40 l 2
 423 66 421 76 417 76 c 0
 412 76 405 63 395 48 c 4
 366 6 330 -20 267 -20 c 0
 138 -20 35 80 35 260 c 0
 35 440 148 539 277 539 c 0
 329 539 367 511 394 477 c 0
 406 462 413 452 417 452 c 0
 422 452 423 464 423 494 c 0
 423 520 424 520 448 520 c 0
 450 520 l 2
 653 520 l 2
 658 520 662 520 665 520 c 0
 680 520 683 518 683 496 c 2
423 260 m 0
 423 354 386 438 315 438 c 0
 251 438 215 354 215 260 c 0
 215 166 251 82 315 82 c 0
 386 82 423 166 423 260 c 0
EndSplineSet
EndChar

StartChar: r
Encoding: 114 114 55
Width: 563
VWidth: 1155
Flags: HMW
LayerCount: 2
Fore
SplineSet
325 0 m 2
 49 0 l 2
 44 0 40 0 37 0 c 0
 17 0 15 2 15 29 c 2
 15 55 l 2
 15 84 16 85 42 85 c 0
 44 85 45 85 47 85 c 2
 79 85 l 2
 102 85 106 91 106 105 c 0
 106 111 105 119 105 129 c 2
 105 409 l 2
 105 433 102 435 86 435 c 0
 82 435 77 435 71 435 c 2
 49 435 l 2
 16 435 15 436 15 466 c 0
 15 468 15 469 15 471 c 2
 15 495 l 2
 15 517 19 520 47 520 c 2
 241 520 l 2
 244 520 247 520 249 520 c 0
 274 520 275 519 275 489 c 0
 275 458 275 447 278 447 c 0
 283 447 294.888671875 476.346679688 307 493 c 4
 331 526 367 540 420 540 c 0
 514 540 563 484 563 406 c 0
 563 354 526 310 461 310 c 0
 407 310 370 340 370 381 c 0
 370 428 390 434 390 446 c 0
 390 451 386 456 375 456 c 0
 347 456 275 366 275 263 c 2
 275 143 l 2
 275 133 275 124 275 117 c 0
 275 91 279 85 319 85 c 2
 339 85 l 2
 364 85 365 84 365 62 c 0
 365 60 365 59 365 57 c 2
 365 37 l 2
 365 1 363 0 332 0 c 0
 330 0 328 0 325 0 c 2
EndSplineSet
EndChar

StartChar: s
Encoding: 115 115 56
Width: 530
VWidth: 1155
Flags: HMW
LayerCount: 2
Fore
SplineSet
394 375 m 0
 369 428 315 456 273 456 c 0
 230 456 195 443 195 416 c 0
 195 306 510 355 510 147 c 0
 510 23 410 -22 293 -22 c 0
 238 -22 191 -3 155 20 c 0
 144 27 140 32 135 32 c 0
 131 32 128 28 121 19 c 2
 116 12 l 2
 104 -4 103 -10 74 -10 c 2
 43 -10 l 2
 22 -10 20 -7 20 6 c 0
 20 10 20 16 20 23 c 2
 20 181 l 2
 20 201 23 203 36 203 c 0
 40 203 44 203 49 203 c 2
 85 203 l 2
 112 203 107 190 115 172 c 4
 142 106 199 65 253 65 c 0
 313 65 347 77 347 118 c 0
 347 235 37 179 37 385 c 0
 37 489 137 542 232 542 c 0
 283 542 321 529 348 512 c 0
 367 500 374 487 381 487 c 0
 386 487 390 492 398 506 c 0
 410 527 413 530 448 530 c 2
 466 530 l 2
 489 530 492 526 492 511 c 0
 492 506 492 501 492 494 c 2
 492 364 l 2
 492 358 492 353 492 349 c 0
 492 333 490 330 466 330 c 2
 435 330 l 2
 396 330 406 350 394 375 c 0
EndSplineSet
EndChar

StartChar: t
Encoding: 116 116 57
Width: 447
VWidth: 1155
Flags: HMW
LayerCount: 2
Fore
SplineSet
412 81 m 4
 386 30 340 -17 243 -17 c 0
 166 -17 93 17 93 106 c 2
 93 411 l 2
 93 433 90 435 75 435 c 0
 71 435 67 435 62 435 c 2
 25 435 l 2
 1 435 0 436 -0 457 c 0
 0 459 0 460 -0 462 c 2
 -0 496 l 2
 0 523 4 519 29 520 c 0
 97 522 152 540 181 668 c 0
 186 690 182 700 211 700 c 2
 237 700 l 2
 261 700 263 698 263 680 c 0
 263 677 263 674 263 670 c 2
 263 550 l 2
 263 521 265 520 289 520 c 0
 291 520 293 520 296 520 c 2
 361 520 l 2
 365 520 369 520 372 520 c 0
 388 520 390 518 390 496 c 2
 390 473 l 2
 390 467 390 462 390 458 c 0
 390 438 388 435 359 435 c 2
 297 435 l 2
 267 435 263 429 263 407 c 2
 263 124 l 2
 263 104 275 85 299 85 c 0
 313 85 331 99 345 117 c 0
 355 129 355 137 362 137 c 0
 365 137 370 136 377 132 c 2
 398 120 l 2
 412 112 419 109 419 101 c 0
 419 96 417 91 412 81 c 4
EndSplineSet
EndChar

StartChar: u
Encoding: 117 117 58
Width: 735
VWidth: 1155
Flags: HMW
LayerCount: 2
Fore
SplineSet
455 237 m 2
 455 400 l 2
 455 402 455 403 455 405 c 0
 455 433 454 435 422 435 c 2
 412 435 l 2
 385 435 385 442 385 476 c 2
 385 492 l 2
 385 520 389 520 415 520 c 0
 417 520 l 2
 572 520 l 2
 583 520 591 520 598 520 c 0
 619 520 625 516 625 482 c 2
 625 130 l 2
 625 121 625 113 625 107 c 0
 625 90 628 85 656 85 c 2
 682 85 l 2
 686 85 689 85 692 85 c 0
 713 85 715 83 715 56 c 2
 715 28 l 2
 715 1 713 0 692 -0 c 0
 690 0 687 0 684 0 c 2
 510 0 l 2
 501 0 494 0 488 -0 c 0
 470 0 465 3 465 32 c 2
 465 58 l 2
 465 76 462 83 459 83 c 0
 454 83 445 67 437 54 c 4
 407 8 353 -20 272 -20 c 0
 155 -20 110 44 110 151 c 2
 110 406 l 2
 110 435 109 435 82 435 c 0
 80 435 l 2
 44 435 l 2
 21 435 20 436 20 454 c 0
 20 456 20 459 20 462 c 2
 20 484 l 2
 20 518 23 520 48 520 c 0
 52 520 57 520 62 520 c 2
 230 520 l 2
 240 520 249 521 256 521 c 0
 274 521 280 516 280 486 c 2
 280 167 l 2
 280 103 294 77 345 77 c 0
 413 77 455 134 455 237 c 2
EndSplineSet
EndChar

StartChar: v
Encoding: 118 118 59
Width: 629
VWidth: 1155
Flags: HMW
LayerCount: 2
Fore
SplineSet
385 258 m 2
 440 398 l 2
 445 412 450 420 450 426 c 0
 450 433 442 435 415 435 c 0
 393 435 389 440 389 453 c 0
 389 458 390 466 390 474 c 2
 390 488 l 2
 390 517 395 520 413 520 c 0
 419 520 426 520 435 520 c 2
 591 520 l 2
 601 520 609 521 615 521 c 0
 628 521 634 517 634 496 c 2
 634 474 l 2
 634 468 634 463 634 458 c 0
 634 439 631 435 603 435 c 2
 587 435 l 2
 544 435 546 425 534 396 c 2
 375 10 l 2
 368 -7 370 -15 344 -15 c 2
 302 -15 l 2
 275 -15 276 -10 268 8 c 6
 90 408 l 2
 79 432 79 435 43 435 c 2
 17 435 l 2
 -3 435 -5 439 -5 451 c 0
 -5 455 -5 460 -5 466 c 2
 -5 490 l 2
 -5 518 -2 520 17 520 c 0
 21 520 27 520 33 520 c 2
 283 520 l 2
 295 520 305 521 313 521 c 0
 328 521 336 517 336 492 c 2
 336 470 l 2
 336 465 336 461 336 457 c 0
 336 438 334 435 307 435 c 2
 293 435 l 2
 279 435 275 432 275 428 c 0
 275 423 280 417 283 408 c 2
 325 298 l 2
 333 278 339 257 346 235 c 0
 353 212 358 202 362 202 c 0
 368 202 373 227 385 258 c 2
EndSplineSet
EndChar

StartChar: w
Encoding: 119 119 60
Width: 925
VWidth: 1155
Flags: HMW
LayerCount: 2
Fore
SplineSet
343 240 m 0
 352 264 356 276 367 303 c 2
 439 484 l 2
 447 503 444 520 473 520 c 2
 539 520 l 2
 559 520 557 513 563 500 c 2
 642 311 l 2
 650 291 659 271 666 249 c 0
 674 225 678 212 681 212 c 0
 684 212 687 224 694 250 c 0
 700 272 706 293 713 313 c 2
 745 413 l 2
 747 421 749 426 749 429 c 0
 749 434 744 435 726 435 c 2
 688 435 l 2
 666 435 666 436 666 458 c 2
 666 496 l 2
 666 519 667 520 687 520 c 0
 689 520 690 520 692 520 c 2
 904 520 l 2
 909 520 914 520 917 520 c 0
 928 520 930 518 930 501 c 2
 930 451 l 2
 930 436 928 435 918 435 c 0
 915 435 913 435 909 435 c 2
 881 435 l 2
 853 435 853 434 846 413 c 2
 722 34 l 2
 712 4 717 -10 674 -10 c 2
 636 -10 l 2
 590 -10 593 3 581 34 c 2
 514 199 l 2
 504 225 495 251 486 278 c 0
 478 301 473 313 469 313 c 0
 464 313 460 300 452 276 c 0
 443 248 435 221 424 195 c 2
 355 22 l 2
 346 -1 348 -10 314 -10 c 2
 262 -10 l 2
 223 -10 227 8 218 36 c 6
 96 409 l 2
 88 434 86 435 52 435 c 2
 24 435 l 2
 -3 435 -5 438 -5 457 c 0
 -5 461 -5 465 -5 471 c 2
 -5 497 l 2
 -5 518 0 520 12 520 c 0
 17 520 23 520 31 520 c 2
 315 520 l 2
 317 520 318 520 320 520 c 0
 345 520 346 519 346 491 c 2
 346 463 l 2
 346 437 344 435 325 435 c 0
 322 435 317 435 313 435 c 2
 288 435 l 2
 285 435 283 435 281 435 c 0
 267 435 262 435 262 429 c 0
 262 426 264 421 266 414 c 2
 298 305 l 2
 304 285 309 265 315 245 c 0
 320 230 324 218 329 218 c 0
 333 218 337 225 343 240 c 0
EndSplineSet
EndChar

StartChar: x
Encoding: 120 120 61
Width: 664
VWidth: 1155
Flags: HMW
LayerCount: 2
Fore
SplineSet
398 377 m 2
 436 410 l 2
 446 419 459 426 459 430 c 0
 459 433 453 435 434 435 c 0
 431 435 428 435 426 435 c 0
 410 435 408 436 408 458 c 2
 408 494 l 2
 408 517 412 520 427 520 c 0
 432 520 437 520 444 520 c 2
 618 520 l 2
 625 520 632 521 638 521 c 0
 647 521 652 519 652 506 c 2
 652 474 l 2
 652 467 652 462 652 457 c 0
 652 439 649 435 622 435 c 2
 604 435 l 2
 580 435 576 430 564 419 c 2
 454 322 l 2
 438 308 427 302 427 293 c 0
 427 287 430 280 439 270 c 2
 567 116 l 2
 584 96 586 85 626 85 c 2
 648 85 l 2
 667 85 669 81 669 70 c 0
 669 66 669 60 669 54 c 2
 669 30 l 2
 669 0 668 0 640 -0 c 0
 639 0 639 0 638 0 c 2
 368 0 l 2
 363 0 359 0 356 -0 c 0
 336 0 333 2 333 30 c 2
 333 56 l 2
 333 85 333 85 362 85 c 0
 378 85 384 87 384 91 c 0
 384 97 370 106 362 116 c 6
 326 160 l 2
 314 174 309 183 302 183 c 0
 297 183 290 178 280 169 c 2
 216 113 l 2
 205 103 190 95 190 90 c 0
 190 87 197 85 216 85 c 2
 234 85 l 2
 240 85 245 85 249 85 c 0
 260 85 264 83 264 64 c 2
 264 34 l 2
 264 1 263 0 233 -0 c 0
 231 0 230 0 228 0 c 2
 32 0 l 2
 24 0 18 0 13 -0 c 0
 -1 0 -5 3 -5 26 c 2
 -5 60 l 2
 -5 64 -5 66 -5 69 c 0
 -5 83 -4 85 16 85 c 2
 38 85 l 2
 71 85 75 93 92 108 c 2
 224 224 l 2
 239 237 245 244 245 251 c 0
 245 259 237 267 223 284 c 2
 120 408 l 2
 106 425 104 435 70 435 c 2
 48 435 l 2
 19 435 18 437 18 461 c 0
 18 463 18 465 18 468 c 2
 18 498 l 2
 18 518 23 521 35 521 c 0
 40 521 46 520 54 520 c 2
 332 520 l 2
 338 520 343 520 347 520 c 0
 366 520 369 518 369 490 c 2
 369 470 l 2
 369 462 370 456 370 451 c 0
 370 440 367 435 348 435 c 2
 332 435 l 2
 313 435 307 434 307 431 c 0
 307 428 311 424 318 416 c 2
 350 378 l 2
 361 365 366 359 372 359 c 0
 378 359 385 365 398 377 c 2
EndSplineSet
EndChar

StartChar: y
Encoding: 121 121 62
Width: 665
VWidth: 1155
Flags: HMW
LayerCount: 2
Fore
SplineSet
163 -265 m 0
 46 -265 -5 -175 -5 -108 c 0
 -5 -42 30 17 101 17 c 0
 171 17 196 -26 196 -67 c 0
 196 -145 118 -140 118 -156 c 0
 118 -169 130 -185 163 -185 c 0
 202 -185 258 -180 305 -60 c 0
 307 -54 308 -49 308 -44 c 0
 308 -33 303 -25 297 -12 c 6
 100 406 l 2
 92 423 93 435 66 435 c 2
 36 435 l 2
 14 435 12 439 12 452 c 0
 12 457 12 463 12 470 c 2
 12 500 l 2
 12 518 19 521 30 521 c 0
 37 521 45 520 54 520 c 2
 306 520 l 2
 314 520 320 520 325 520 c 0
 339 520 343 517 343 494 c 2
 343 466 l 2
 343 460 343 456 343 452 c 0
 343 439 341 435 320 435 c 2
 288 435 l 2
 272 435 267 433 267 428 c 0
 267 423 273 416 277 406 c 2
 347 250 l 2
 357 228 366 205 374 180 c 0
 382 157 386 145 389 145 c 0
 392 145 395 155 402 178 c 0
 410 205 418 230 428 254 c 2
 488 408 l 2
 492 418 495 424 495 428 c 0
 495 434 489 435 468 435 c 2
 446 435 l 2
 427 435 425 438 425 450 c 0
 425 454 425 458 425 464 c 2
 425 499 l 2
 425 518 431 521 442 521 c 0
 448 521 455 520 464 520 c 2
 644 520 l 2
 669 520 670 518 670 499 c 0
 670 497 670 494 670 491 c 2
 670 464 l 2
 670 460 670 456 670 453 c 0
 670 437 668 435 646 435 c 2
 624 435 l 2
 590 435 591 431 582 408 c 2
 379 -102 l 2
 327 -233 221 -265 163 -265 c 0
EndSplineSet
EndChar

StartChar: z
Encoding: 122 122 63
Width: 570
VWidth: 1155
Flags: HMW
LayerCount: 2
Fore
SplineSet
271 440 m 2
 168 440 141 398 135 331 c 0
 135 328 134 326 134 323 c 0
 134 318 135 313 135 309 c 0
 135 297 132 288 114 288 c 2
 81 288 l 2
 55 288 53 290 53 310 c 0
 53 313 53 316 53 320 c 2
 53 478 l 2
 53 487 53 493 53 499 c 0
 53 515 56 520 82 520 c 2
 480 520 l 2
 486 520 492 520 498 520 c 0
 518 520 534 518 534 500 c 6
 534 474 l 2
 534 447 532 438 520 424 c 2
 262 120 l 6
 246 101 235 91 235 86 c 0
 235 81 245 80 269 80 c 6
 294 80 l 2
 428 80 455 132 455 230 c 0
 455 234 455 236 455 239 c 0
 455 250 456 254 474 254 c 2
 513 254 l 2
 535 254 535 253 535 231 c 2
 535 27 l 2
 535 25 535 24 535 22 c 0
 535 1 534 0 510 0 c 2
 77 0 l 2
 66 0 58 -1 51 -1 c 0
 37 -1 30 3 30 27 c 2
 30 52 l 2
 30 87 40 92 55 109 c 2
 325 417 l 2
 333 426 340 432 340 435 c 0
 340 438 333 440 314 440 c 6
 271 440 l 2
EndSplineSet
EndChar

StartChar: comma
Encoding: 44 44 65
Width: 305
Flags: HMW
LayerCount: 2
Fore
SplineSet
40 84 m 0
 40 137 79 183 147 183 c 0
 211 183 262 142 262 49 c 0
 262 -77 170 -142 71 -154 c 0
 66 -155 61 -155 57 -155 c 0
 45 -155 38 -151 38 -138 c 6
 38 -108 l 2
 38 -78 48 -87 74 -83 c 4
 116 -77 164 -58 181 -16 c 4
 185 -7 186 -1 186 1 c 0
 186 2 186 3 185 3 c 0
 182 3 176 -2 165 -7 c 0
 155 -12 140 -15 118 -15 c 1
 65 -15 40 31 40 84 c 0
EndSplineSet
EndChar

StartChar: exclam
Encoding: 33 33 67
Width: 359
Flags: HMW
LayerCount: 2
Fore
SplineSet
288 634 m 0
 278 468 220 423 214 292 c 0
 213 274 217 268 196 268 c 2
 160 268 l 2
 146 268 145 272 145 281 c 0
 145 284 144 287 144 291 c 4
 138 423 80 467 70 634 c 0
 70 641 70 647 70 653 c 0
 70 729 122 768 179 768 c 0
 236 768 289 729 289 653 c 0
 289 647 288 641 288 634 c 0
EndSplineSet
Refer: 1 46 N 1 0 0 1 40 0 2
EndChar

StartChar: quotesingle
Encoding: 39 39 70
Width: 259
Flags: HMW
LayerCount: 2
Fore
SplineSet
218 664 m 0
 208 603 164 581 158 504 c 0
 157 488 157 488 139 488 c 2
 116 488 l 2
 100 488 100 488 99 503 c 4
 94 581 50 603 40 664 c 0
 39 671 39 676 39 682 c 0
 39 726 75 768 129 768 c 0
 183 768 219 726 219 682 c 0
 219 676 219 671 218 664 c 0
EndSplineSet
EndChar

StartChar: question
Encoding: 63 63 75
Width: 590
Flags: HMW
LayerCount: 2
Fore
SplineSet
194 662 m 0
 194 642 244 621 244 550 c 0
 244 498 202 460 147 460 c 0
 92 460 45 503 45 571 c 0
 45 663 129 770 301 770 c 0
 492 770 570 690 570 570 c 0
 570 465 501 403 408 373 c 0
 377 363 367 369 367 326 c 2
 367 286 l 2
 367 284 367 283 367 281 c 0
 367 251 366 249 332 249 c 2
 234 249 l 2
 210 249 207 253 207 268 c 0
 207 273 207 279 207 286 c 2
 207 350 l 2
 207 397 220 392 252 404 c 4
 335 435 389 482 389 570 c 0
 389 644 370 698 281 698 c 0
 227 698 194 674 194 662 c 0
EndSplineSet
Refer: 1 46 N 1 0 0 1 149 0 2
EndChar

StartChar: parenleft
Encoding: 40 40 76
Width: 485
Flags: HMW
LayerCount: 2
Fore
SplineSet
467 -118 m 6
 458 -140 l 2
 450 -159 444 -166 433 -166 c 0
 425 -166 415 -163 400 -158 c 0
 200 -95 55 80 55 325 c 0
 55 563 192 719 384 783 c 0
 402 789 417 797 430 797 c 0
 440 797 448 792 454 778 c 2
 461 762 l 2
 466 750 469 742 469 737 c 0
 469 726 457 724 434 713 c 0
 316 655 250 534 250 325 c 0
 250 111 319 -28 443 -87 c 0
 459 -95 471 -95 471 -105 c 0
 471 -108 469 -112 467 -118 c 6
EndSplineSet
EndChar

StartChar: asterisk
Encoding: 42 42 78
Width: 635
VWidth: 1155
Flags: HMW
LayerCount: 2
Fore
SplineSet
516 538 m 0
 505 534 495 533 484 533 c 0
 466 533 447 536 426 536 c 0
 410 536 392 534 372 527 c 0
 363 524 359 522 359 520 c 0
 359 518 363 516 372 513 c 0
 392 506 410 504 426 504 c 0
 447 504 466 507 484 507 c 0
 495 507 505 506 516 502 c 0
 523 500 527 497 532 494 c 0
 557 479 572 453 572 424 c 0
 572 409 567 394 559 380 c 0
 542 351 514 336 486 336 c 0
 472 336 459 340 447 347 c 0
 442 350 437 352 432 357 c 0
 398 386 400 432 352 473 c 0
 343 481 336 481 338 470 c 0
 351 405 392 384 401 339 c 0
 402 332 402 327 402 321 c 0
 402 277 366 240 317 240 c 0
 268 240 232 277 232 321 c 0
 232 327 232 332 233 339 c 0
 242 383 284 404 295 466 c 0
 296 470 296 474 296 476 c 0
 296 480 296 482 294 482 c 0
 290 482 283 475 277 470 c 0
 230 430 235 386 202 357 c 0
 197 352 192 350 187 347 c 0
 175 340 162 336 148 336 c 0
 120 336 92 351 75 380 c 0
 67 394 62 409 62 424 c 0
 62 453 77 479 102 494 c 0
 107 497 111 500 118 502 c 0
 129 506 139 507 150 507 c 0
 168 507 187 504 208 504 c 0
 225 504 243 506 263 513 c 0
 272 516 275 518 275 520 c 0
 275 523 268 526 258 529 c 0
 240 535 223 536 208 536 c 0
 187 536 168 533 150 533 c 0
 139 533 129 534 118 538 c 0
 111 540 107 543 102 546 c 0
 77 561 62 587 62 616 c 0
 62 631 67 646 75 660 c 0
 92 689 120 704 148 704 c 0
 162 704 175 700 187 693 c 0
 192 690 197 688 202 683 c 0
 235 654 235 610 279 570 c 0
 286 563 291 560 294 560 c 0
 296 560 297 561 297 565 c 0
 297 569 296 576 293 586 c 0
 279 639 241 660 233 701 c 0
 232 708 232 713 232 719 c 0
 232 763 268 800 317 800 c 0
 366 800 402 763 402 719 c 0
 402 713 402 708 401 701 c 0
 393 661 357 640 342 588 c 0
 339 578 337 570 337 565 c 0
 337 562 338 560 340 560 c 0
 343 560 348 563 355 570 c 0
 399 610 399 654 432 683 c 0
 437 688 442 690 447 693 c 0
 459 700 472 704 486 704 c 0
 514 704 542 689 559 660 c 0
 567 646 572 631 572 616 c 0
 572 587 557 561 532 546 c 0
 527 543 523 540 516 538 c 0
EndSplineSet
EndChar

StartChar: at
Encoding: 64 64 79
Width: 1100
VWidth: 1155
Flags: HMW
LayerCount: 2
Fore
SplineSet
644 346 m 0
 644 388 640 458 594 458 c 0
 550 458 495 324 495 220 c 0
 495 173 500 142 534 142 c 0
 595 142 644 268 644 346 c 0
846 -95 m 0
 762 -180 640 -224 489 -224 c 0
 306 -224 45 -112 45 221 c 0
 45 554 292 800 605 800 c 0
 898 800 1050 624 1050 401 c 0
 1050 231 942 65 761 65 c 0
 705 65 664 91 640 125 c 0
 630 139 626 145 622 145 c 0
 616 145 613 132 598 116 c 0
 568 84 530 65 484 65 c 0
 375 65 324 126 324 210 c 0
 324 380 409 534 568 534 c 0
 627 534 654 513 665 478 c 0
 672 456 674 445 675 445 c 0
 677 445 678 459 684 486 c 0
 691 518 697 520 729 520 c 0
 733 520 737 520 742 520 c 2
 813 520 l 2
 848 520 858 519 858 506 c 0
 858 499 855 490 852 475 c 6
 790 210 l 2
 789 204 786 193 786 183 c 0
 786 171 790 160 808 160 c 0
 859 160 957 241 957 405 c 0
 957 612 806 712 622 712 c 0
 408 712 230 503 230 231 c 0
 230 -71 411 -129 525 -129 c 0
 611 -129 699 -116 782 -39 c 0
 792 -30 799 -24 806 -24 c 0
 812 -24 819 -28 828 -37 c 2
 842 -51 l 2
 853 -62 860 -68 860 -74 c 0
 860 -79 856 -85 846 -95 c 0
EndSplineSet
EndChar

StartChar: dollar
Encoding: 36 36 80
Width: 660
Flags: HMW
LayerCount: 2
Fore
SplineSet
346 835 m 6
 382 835 l 2
 401 835 404 834 404 824 c 0
 404 821 403 816 403 810 c 2
 402 788 l 2
 402 782 401 778 401 774 c 0
 401 760 406 760 426 756 c 0
 533 737 624 685 624 579 c 0
 624 511 579 483 530 483 c 0
 483 483 443 514 443 571 c 0
 443 617 480 617 480 640 c 0
 480 660 462 674 420 680 c 0
 415 681 410 681 407 681 c 0
 393 681 394 674 393 652 c 2
 384 508 l 2
 383 500 383 494 383 489 c 0
 383 472 388 469 410 462 c 0
 526 425 650 371 650 205 c 0
 650 79 537 1 382 -13 c 0
 353 -16 350 -12 348 -42 c 2
 347 -60 l 2
 346 -82 340 -85 325 -85 c 0
 320 -85 314 -85 306 -85 c 2
 274 -85 l 2
 269 -85 266 -85 263 -85 c 0
 254 -85 251 -84 251 -74 c 0
 251 -72 251 -70 251 -68 c 2
 253 -34 l 2
 253 -32 254 -30 254 -28 c 0
 254 -5 241 -10 218 -6 c 0
 87 17 6 83 6 186 c 0
 6 264 61 292 100 292 c 0
 157 292 197 261 197 204 c 0
 197 158 150 143 150 120 c 0
 150 99 168 76 230 64 c 0
 238 63 243 61 247 61 c 0
 259 61 260 69 262 92 c 2
 274 282 l 2
 274 288 275 293 275 297 c 0
 275 324 266 322 236 331 c 0
 135 361 40 408 40 544 c 0
 40 668 165 746 278 762 c 0
 302 765 305 762 307 788 c 2
 308 810 l 2
 309 833 314 835 330 835 c 0
 334 835 340 835 346 835 c 6
262 666 m 4
 232 650 216 623 216 583 c 0
 216 555 230 536 254 520 c 0
 266 512 274 508 279 508 c 0
 288 508 289 521 291 550 c 2
 298 646 l 2
 298 650 298 653 298 656 c 0
 298 671 295 677 288 677 c 0
 282 677 274 672 262 666 c 4
400 67 m 4
 468 93 470 159 470 190 c 0
 470 234 445 260 406 279 c 0
 396 284 386 291 379 291 c 0
 373 291 369 286 368 272 c 2
 356 84 l 2
 356 82 356 81 356 79 c 0
 356 63 361 58 369 58 c 0
 377 58 388 62 400 67 c 4
EndSplineSet
EndChar

StartChar: numbersign
Encoding: 35 35 81
Width: 660
Flags: HMW
LayerCount: 2
Fore
SplineSet
239 805 m 6
 285 805 l 2
 286 805 l 0
 300 805 304 805 304 797 c 0
 304 794 304 791 303 787 c 2
 278 577 l 2
 277 570 277 565 277 561 c 0
 277 551 282 550 303 550 c 2
 388 550 l 2
 414 550 410 555 413 577 c 2
 437 783 l 2
 439 803 445 805 459 805 c 0
 463 805 468 805 475 805 c 2
 505 805 l 6
 516 805 523 803 523 789 c 0
 523 787 522 785 522 782 c 2
 499 580 l 2
 498 572 497 566 497 562 c 0
 497 551 503 550 526 550 c 2
 648 550 l 2
 670 550 670 550 670 528 c 2
 670 491 l 2
 670 465 670 465 644 465 c 2
 508 465 l 2
 485 465 485 464 483 443 c 2
 470 333 l 2
 469 323 467 316 467 311 c 0
 467 303 471 300 489 300 c 2
 608 300 l 2
 615 300 621 301 626 301 c 0
 635 301 640 298 640 284 c 2
 640 251 l 2
 640 243 641 236 641 230 c 0
 641 221 638 215 624 215 c 2
 486 215 l 2
 481 215 476 215 473 215 c 0
 459 215 456 213 454 195 c 2
 427 -35 l 2
 425 -54 425 -55 404 -55 c 2
 364 -55 l 2
 346 -55 341 -53 341 -45 c 0
 341 -41 342 -36 343 -29 c 2
 369 196 l 2
 369 200 370 204 370 206 c 0
 370 215 366 215 356 215 c 0
 353 215 350 215 346 215 c 2
 258 215 l 2
 234 215 236 212 234 191 c 2
 208 -27 l 2
 205 -52 207 -55 179 -55 c 2
 143 -55 l 2
 125 -55 121 -53 121 -45 c 0
 121 -40 122 -34 123 -25 c 2
 149 194 l 2
 150 198 150 202 150 205 c 0
 150 214 146 215 134 215 c 0
 131 215 128 215 124 215 c 2
 16 215 l 2
 10 215 5 214 1 214 c 0
 -7 214 -10 217 -10 229 c 2
 -10 279 l 2
 -10 299 -8 300 7 300 c 0
 9 300 11 300 14 300 c 2
 138 300 l 2
 164 300 161 304 164 327 c 2
 177 438 l 2
 178 446 179 451 179 455 c 0
 179 463 175 465 156 465 c 2
 45 465 l 2
 40 465 36 465 33 465 c 0
 23 465 20 467 20 483 c 2
 20 523 l 2
 20 525 20 526 20 528 c 0
 20 549 21 550 45 550 c 2
 164 550 l 2
 168 550 171 550 174 550 c 0
 188 550 191 551 193 569 c 2
 218 792 l 2
 220 807 223 805 239 805 c 6
375 465 m 6
 297 465 l 2
 295 465 l 0
 267 465 265 465 262 438 c 2
 249 321 l 2
 248 316 248 312 248 309 c 0
 248 300 251 300 268 300 c 0
 270 300 l 2
 360 300 l 2
 383 300 382 302 384 322 c 2
 398 444 l 2
 399 449 399 452 399 455 c 0
 399 464 395 465 381 465 c 0
 379 465 377 465 375 465 c 6
EndSplineSet
EndChar

StartChar: slash
Encoding: 47 47 82
Width: 520
Flags: HMW
LayerCount: 2
Fore
SplineSet
415 780 m 2
 431 780 l 2
 462 780 472 775 472 763 c 0
 472 754 466 740 459 721 c 2
 164 -109 l 2
 153 -141 155 -150 110 -150 c 2
 76 -150 l 2
 51 -150 44 -147 44 -139 c 0
 44 -132 50 -120 56 -105 c 6
 360 737 l 2
 372 769 369 780 415 780 c 2
EndSplineSet
EndChar

StartChar: percent
Encoding: 37 37 83
Width: 1000
Flags: HMW
LayerCount: 2
Fore
SplineSet
720 210 m 0
 720 108 731 50 765 50 c 0
 799 50 810 108 810 210 c 0
 810 312 799 370 765 370 c 0
 731 370 720 312 720 210 c 0
550 210 m 0
 550 353 622 440 765 440 c 0
 908 440 980 353 980 210 c 0
 980 67 888 -20 765 -20 c 0
 622 -20 550 67 550 210 c 0
736 750 m 2
 776 750 l 2
 792 750 804 750 804 741 c 0
 804 737 802 731 797 724 c 2
 313 27 l 2
 299 6 297 0 260 0 c 2
 224 0 l 6
 204 0 196 2 196 9 c 0
 196 16 204 27 218 47 c 6
 691 721 l 2
 704 739 704 750 736 750 c 2
190 540 m 0
 190 438 201 380 235 380 c 0
 269 380 280 438 280 540 c 0
 280 642 269 700 235 700 c 0
 201 700 190 642 190 540 c 0
20 540 m 0
 20 683 92 770 235 770 c 0
 378 770 450 683 450 540 c 0
 450 397 358 310 235 310 c 0
 92 310 20 397 20 540 c 0
EndSplineSet
EndChar

StartChar: hyphen
Encoding: 45 45 85
Width: 460
Flags: HMW
LayerCount: 2
Fore
SplineSet
99 435 m 2
 381 435 l 2
 398 435 401 429 401 418 c 0
 401 412 400 404 400 395 c 2
 400 368 l 6
 400 365 400 362 400 359 c 0
 400 341 397 340 350 340 c 6
 102 340 l 6
 62 340 60 342 60 365 c 6
 60 403 l 6
 60 429 64 435 99 435 c 2
EndSplineSet
EndChar

StartChar: plus
Encoding: 43 43 87
Width: 530
Flags: HMW
LayerCount: 2
Fore
SplineSet
348 358 m 6
 436 358 l 2
 470 358 470 358 470 324 c 2
 470 296 l 2
 470 275 467 273 454 273 c 0
 450 273 444 273 438 273 c 2
 330 273 l 2
 309 273 307 270 307 256 c 0
 307 253 307 249 307 244 c 2
 307 138 l 2
 307 112 304 110 286 110 c 0
 282 110 278 110 272 110 c 2
 254 110 l 2
 226 110 222 116 222 133 c 0
 222 140 223 149 223 160 c 2
 223 244 l 2
 223 270 216 274 201 274 c 0
 194 274 185 273 174 273 c 2
 84 273 l 2
 62 273 60 276 60 291 c 0
 60 295 60 299 60 304 c 2
 60 324 l 2
 60 357 61 358 91 358 c 0
 93 358 94 358 96 358 c 2
 184 358 l 2
 220 358 223 361 223 388 c 0
 223 393 223 398 223 404 c 2
 223 500 l 2
 223 519 225 520 239 520 c 0
 241 520 243 520 246 520 c 2
 282 520 l 2
 306 520 307 519 307 500 c 0
 307 498 307 495 307 492 c 2
 307 402 l 2
 307 399 307 396 307 394 c 0
 307 360 308 358 348 358 c 6
EndSplineSet
EndChar

StartChar: less
Encoding: 60 60 89
Width: 560
Flags: HMW
LayerCount: 2
Fore
SplineSet
204 364 m 6
 464 264 l 2
 491 253 500 256 500 216 c 2
 500 186 l 2
 500 158 498 149 490 149 c 0
 484 149 473 155 458 161 c 2
 92 303 l 2
 63 314 60 314 60 355 c 2
 60 420 l 2
 60 464 67 463 98 475 c 2
 464 616 l 2
 477 621 486 626 491 626 c 0
 498 626 500 618 500 592 c 2
 500 564 l 2
 500 516 487 520 454 507 c 2
 206 411 l 2
 174 399 158 394 158 388 c 0
 158 382 173 376 204 364 c 6
EndSplineSet
EndChar

StartChar: backslash
Encoding: 92 92 91
Width: 520
Flags: HMW
LayerCount: 2
Fore
SplineSet
156 746 m 6
 466 -112 l 2
 471 -126 476 -134 476 -140 c 0
 476 -147 468 -150 443 -150 c 2
 407 -150 l 2
 366 -150 368 -143 358 -114 c 2
 53 744 l 2
 48 757 43 765 43 771 c 0
 43 778 50 780 73 780 c 2
 113 780 l 2
 150 780 147 772 156 746 c 6
EndSplineSet
EndChar

StartChar: bracketleft
Encoding: 91 91 92
Width: 365
Flags: HMW
LayerCount: 2
Fore
SplineSet
109 780 m 6
 295 780 l 2
 301 780 307 780 312 780 c 0
 332 780 335 777 335 748 c 2
 335 720 l 2
 335 688 331 685 309 685 c 0
 304 685 298 685 291 685 c 2
 261 685 l 2
 228 685 225 682 225 658 c 0
 225 654 225 648 225 642 c 2
 225 -6 l 2
 225 -12 225 -18 225 -23 c 0
 225 -52 228 -55 267 -55 c 2
 289 -55 l 2
 299 -55 308 -54 314 -54 c 0
 329 -54 335 -58 335 -84 c 2
 335 -120 l 2
 335 -147 331 -150 313 -150 c 0
 308 -150 302 -150 295 -150 c 2
 117 -150 l 2
 105 -150 94 -151 86 -151 c 0
 62 -151 55 -146 55 -106 c 2
 55 732 l 2
 55 777 58 780 93 780 c 0
 98 780 103 780 109 780 c 6
EndSplineSet
EndChar

StartChar: braceleft
Encoding: 123 123 93
Width: 332
VWidth: 1155
Flags: HMW
LayerCount: 2
Fore
SplineSet
266 -149 m 4
 98 -143 35 -93 35 -10 c 0
 35 87 115 152 115 215 c 0
 115 240 104 252 88 259 c 0
 65 270 55 263 55 300 c 2
 55 328 l 2
 55 368 66 360 90 373 c 0
 105 381 115 392 115 416 c 0
 115 479 35 544 35 641 c 0
 35 722 95 771 254 779 c 0
 264 780 274 781 282 781 c 0
 294 781 302 777 302 758 c 2
 302 718 l 2
 302 691 300 694 276 691 c 0
 231 685 208 662 208 617 c 0
 208 551 242 521 242 431 c 0
 242 393 217 364 184 340 c 0
 165 327 152 323 152 317 c 0
 152 313 158 308 173 298 c 0
 212 273 242 243 242 200 c 0
 242 110 208 80 208 14 c 0
 208 -26 226 -50 262 -59 c 0
 290 -66 302 -55 302 -92 c 2
 302 -126 l 2
 302 -147 298 -150 286 -150 c 0
 281 -150 274 -149 266 -149 c 4
EndSplineSet
EndChar

StartChar: bar
Encoding: 124 124 96
Width: 300
VWidth: 1155
Flags: HMW
LayerCount: 2
Fore
SplineSet
128 780 m 6
 168 780 l 2
 171 780 174 780 176 780 c 0
 204 780 205 779 205 746 c 2
 205 -190 l 2
 205 -203 207 -215 207 -224 c 0
 207 -240 202 -250 176 -250 c 2
 130 -250 l 2
 99 -250 95 -244 95 -225 c 0
 95 -218 95 -210 95 -200 c 2
 95 750 l 2
 95 779 97 780 121 780 c 0
 123 780 125 780 128 780 c 6
EndSplineSet
EndChar

StartChar: cent
Encoding: 162 162 98
Width: 605
VWidth: 1155
Flags: HMW
LayerCount: 2
Fore
SplineSet
322 615 m 2
 352 615 l 2
 353 615 355 615 356 615 c 0
 368 615 370 615 370 605 c 0
 370 603 370 601 370 598 c 2
 369 566 l 2
 369 564 369 562 369 560 c 0
 369 532 380 539 406 534 c 0
 511 513 575 438 575 373 c 0
 575 305 520 260 471 260 c 0
 414 260 374 296 374 353 c 0
 374 399 417 406 417 428 c 0
 417 440 406 451 388 458 c 0
 381 460 377 463 373 463 c 0
 367 463 365 458 364 444 c 2
 349 98 l 2
 349 88 347 80 347 74 c 0
 347 65 349 61 359 61 c 0
 362 61 366 61 370 62 c 0
 410 70 440 95 461 143 c 0
 469 161 465 173 493 173 c 2
 525 173 l 2
 549 173 559 173 559 162 c 0
 559 158 558 153 556 147 c 0
 530 66 476 1 380 -16 c 0
 361 -19 344 -12 343 -36 c 2
 342 -54 l 2
 341 -82 344 -85 314 -85 c 2
 288 -85 l 2
 270 -85 266 -84 266 -73 c 0
 266 -70 267 -65 267 -60 c 2
 268 -38 l 2
 269 -8 255 -14 232 -9 c 4
 92 25 35 134 35 250 c 0
 35 376 104 494 250 529 c 0
 287 538 292 533 294 578 c 2
 295 596 l 2
 296 613 299 615 311 615 c 0
 314 615 318 615 322 615 c 2
275 116 m 6
 287 400 l 2
 287 404 287 408 287 411 c 0
 287 429 284 436 280 436 c 0
 273 436 263 417 254 398 c 0
 238 365 230 321 230 270 c 0
 230 209 233 153 251 114 c 0
 258 100 264 88 268 88 c 0
 271 88 274 96 275 116 c 6
EndSplineSet
EndChar

StartChar: sterling
Encoding: 163 163 99
Width: 650
VWidth: 1155
Flags: HMW
LayerCount: 2
Fore
SplineSet
453 375 m 2
 453 327 l 2
 453 323 453 320 453 317 c 0
 453 301 451 300 430 300 c 2
 333 300 l 2
 310 300 312 297 308 279 c 0
 292 211 234 177 179 143 c 0
 158 130 147 122 147 120 c 0
 147 120 147 120 148 120 c 0
 151 120 162 125 181 136 c 0
 213 154 251 167 280 167 c 0
 360 167 380 113 446 113 c 0
 478 113 511 131 525 162 c 0
 535 183 524 197 555 197 c 2
 578 197 l 2
 597 197 600 195 600 184 c 0
 600 181 599 176 599 171 c 0
 592 41 532 -40 430 -40 c 0
 313 -40 268 35 195 35 c 0
 148 35 119 20 104 -1 c 0
 95 -13 99 -20 78 -20 c 2
 37 -20 l 2
 19 -20 18 -16 18 -2 c 0
 18 0 18 3 18 5 c 0
 18 129 147 201 147 261 c 0
 147 299 142 300 104 300 c 2
 -14 300 l 2
 -35 300 -37 304 -37 317 c 0
 -37 322 -37 327 -37 334 c 2
 -37 360 l 2
 -37 364 -37 368 -37 371 c 0
 -37 393 -35 395 -6 395 c 2
 46 395 l 2
 52 395 58 395 63 395 c 0
 86 395 95 396 95 403 c 0
 95 408 90 416 82 430 c 0
 62 466 46 503 46 550 c 0
 46 690 161 775 362 775 c 0
 544 775 608 673 608 581 c 0
 608 513 563 475 514 475 c 0
 467 475 418 506 418 563 c 0
 418 609 455 624 455 647 c 0
 455 674 436 693 362 693 c 0
 283 693 237 634 237 560 c 0
 237 515 253 476 270 441 c 0
 283 415 281 395 321 395 c 2
 427 395 l 2
 432 395 436 395 439 395 c 0
 451 395 453 393 453 375 c 2
EndSplineSet
EndChar

StartChar: section
Encoding: 167 167 101
Width: 574
VWidth: 1155
Flags: HMW
LayerCount: 2
Fore
SplineSet
367 658 m 0
 367 684 325 694 273 694 c 0
 220 694 185 671 185 634 c 0
 185 518 528 538 528 375 c 0
 528 343 512 314 487 287 c 0
 472 271 462 265 462 259 c 0
 462 254 468 248 483 236 c 4
 510 213 528 183 528 142 c 0
 528 18 368 -20 273 -20 c 0
 165 -20 9 12 9 138 c 0
 9 206 64 239 103 239 c 0
 150 239 190 203 190 156 c 0
 190 120 138 115 138 92 c 0
 138 66 210 56 262 56 c 0
 325 56 370 69 370 116 c 0
 370 232 27 212 27 375 c 0
 27 420 53 448 85 471 c 0
 97 480 102 484 102 488 c 0
 102 493 93 496 78 508 c 0
 48 532 27 563 27 608 c 0
 27 712 167 770 262 770 c 0
 390 770 516 728 516 612 c 0
 516 544 471 516 432 516 c 0
 395 516 335 547 335 594 c 0
 335 630 367 635 367 658 c 0
362 333 m 4
 362 392 294 416 220 442 c 0
 211 445 204 447 199 447 c 0
 188 447 183 440 183 417 c 0
 183 360 249 334 324 309 c 0
 333 306 341 304 347 304 c 0
 357 304 362 311 362 333 c 4
EndSplineSet
EndChar

StartChar: asciitilde
Encoding: 126 126 104
Width: 688
VWidth: 1155
Flags: HMW
LayerCount: 2
Fore
SplineSet
243 427 m 0
 198 427 182 404 178 366 c 0
 176 345 174 343 157 343 c 0
 154 343 150 343 146 343 c 2
 108 343 l 2
 85 343 79 351 79 363 c 0
 79 371 82 382 84 394 c 0
 100 479 157 530 249 530 c 0
 379 530 359 426 435 426 c 0
 472 426 494 441 504 468 c 0
 514 494 501 510 540 510 c 2
 576 510 l 2
 578 510 580 510 582 510 c 0
 601 510 607 509 607 494 c 0
 607 491 607 487 607 482 c 4
 598 383 539 323 439 323 c 0
 292 323 326 427 243 427 c 0
EndSplineSet
EndChar

StartChar: copyright
Encoding: 169 169 105
Width: 870
Flags: HMW
LayerCount: 2
Fore
SplineSet
40 375 m 0
 40 588 218 760 435 760 c 0
 652 760 830 588 830 375 c 0
 830 162 652 -10 435 -10 c 0
 218 -10 40 162 40 375 c 0
100 375 m 0
 100 190 250 39 435 39 c 0
 620 39 770 190 770 375 c 0
 770 560 620 711 435 711 c 0
 250 711 100 560 100 375 c 0
EndSplineSet
Refer: 14 67 S 0.6 0 0 0.6 162 150 2
EndChar

StartChar: registered
Encoding: 174 174 106
Width: 870
Flags: HMW
LayerCount: 2
Fore
SplineSet
40 375 m 0
 40 588 218 760 435 760 c 0
 652 760 830 588 830 375 c 0
 830 162 652 -10 435 -10 c 0
 218 -10 40 162 40 375 c 0
100 375 m 0
 100 190 250 39 435 39 c 0
 620 39 770 190 770 375 c 0
 770 560 620 711 435 711 c 0
 250 711 100 560 100 375 c 0
EndSplineSet
Refer: 29 82 S 0.6 0 0 0.6 178 148 2
EndChar

StartChar: guillemotleft
Encoding: 171 171 108
Width: 695
Flags: HMW
LayerCount: 2
Fore
SplineSet
483 367 m 2
 658 206 l 2
 667 198 671 193 671 188 c 0
 671 183 666 178 658 167 c 2
 647 151 l 2
 641 142 637 139 633 139 c 0
 629 139 624 143 615 149 c 2
 309 365 l 2
 299 372 295 372 295 390 c 0
 295 403 300 404 308 409 c 2
 607 620 l 2
 618 628 625 636 632 636 c 0
 636 636 640 633 646 625 c 2
 656 611 l 2
 664 599 671 593 671 587 c 0
 671 582 667 578 659 570 c 6
 480 405 l 2
 470 396 466 391 466 387 c 0
 466 382 472 377 483 367 c 2
206 364 m 2
 374 209 l 2
 384 200 391 196 391 190 c 0
 391 186 388 181 383 174 c 2
 370 156 l 2
 362 145 357 140 352 140 c 0
 346 140 340 145 328 154 c 2
 45 354 l 2
 19 373 15 367 15 388 c 0
 15 410 19 403 56 429 c 2
 330 622 l 2
 340 629 346 636 352 636 c 0
 356 636 360 633 365 626 c 2
 378 608 l 2
 385 598 391 593 391 587 c 0
 391 583 389 579 382 573 c 2
 202 407 l 2
 191 397 187 392 187 387 c 0
 187 381 194 375 206 364 c 2
EndSplineSet
EndChar

StartChar: mu
Encoding: 181 181 111
Width: 735
VWidth: 1155
Flags: HMW
LayerCount: 2
Fore
SplineSet
281 -113 m 0
 334 -113 347 -147 347 -181 c 0
 347 -216 314 -260 256 -260 c 0
 194 -260 110 -211 110 -122 c 0
 110 54 110 230 110 406 c 0
 110 435 109 435 82 435 c 0
 80 435 l 2
 44 435 l 2
 21 435 20 436 20 454 c 0
 20 456 20 459 20 462 c 2
 20 484 l 2
 20 518 23 520 48 520 c 0
 52 520 57 520 62 520 c 2
 230 520 l 2
 240 520 249 521 256 521 c 0
 274 521 280 516 280 486 c 2
 280 167 l 2
 280 103 294 77 345 77 c 0
 413 77 455 134 455 237 c 2
 455 400 l 2
 455 402 455 403 455 405 c 0
 455 433 454 435 422 435 c 2
 412 435 l 2
 385 435 385 442 385 476 c 2
 385 492 l 2
 385 520 389 520 415 520 c 0
 417 520 l 2
 572 520 l 2
 583 520 591 520 598 520 c 0
 619 520 625 516 625 482 c 2
 625 130 l 2
 625 121 625 113 625 107 c 0
 625 90 628 85 656 85 c 2
 682 85 l 2
 686 85 689 85 692 85 c 0
 713 85 715 83 715 56 c 2
 715 28 l 2
 715 1 713 0 692 -0 c 0
 690 0 687 0 684 0 c 2
 510 0 l 2
 501 0 494 0 488 -0 c 0
 470 0 465 3 465 32 c 2
 465 58 l 2
 465 76 462 83 459 83 c 0
 454 83 445 67 437 54 c 0
 407 8 353 -20 272 -20 c 0
 248 -20 226 -17 208 -12 c 0
 194 -8 183 2 177 2 c 0
 172 2 170 -4 170 -22 c 6
 170 -119 l 2
 170 -149 186 -152 199 -152 c 0
 202 -152 205 -152 207 -152 c 0
 227 -152 246 -113 281 -113 c 0
EndSplineSet
EndChar

StartChar: asciicircum
Encoding: 94 94 113
Width: 545
Flags: HMW
LayerCount: 2
Fore
SplineSet
233 643 m 6
 139 575 l 2
 123 563 115 555 103 555 c 0
 96 555 88 558 77 563 c 2
 55 573 l 2
 47 577 44 580 44 583 c 0
 44 589 54 594 62 603 c 2
 198 747 l 2
 215 764 219 770 255 770 c 2
 299 770 l 2
 327 770 330 765 343 751 c 2
 470 617 l 2
 482 604 499 595 499 585 c 0
 499 580 495 576 485 571 c 2
 463 561 l 2
 454 557 448 555 442 555 c 0
 429 555 421 563 405 575 c 2
 301 651 l 2
 288 661 279 665 271 665 c 0
 260 665 251 656 233 643 c 6
EndSplineSet
EndChar

StartChar: degree
Encoding: 176 176 115
Width: 320
Flags: HMW
LayerCount: 2
Fore
SplineSet
105 680 m 0
 105 650 130 625 160 625 c 0
 190 625 215 650 215 680 c 0
 215 710 190 735 160 735 c 0
 130 735 105 710 105 680 c 0
40 680 m 0
 40 746 94 800 160 800 c 0
 226 800 280 746 280 680 c 0
 280 614 226 560 160 560 c 0
 94 560 40 614 40 680 c 0
EndSplineSet
EndChar

StartChar: onequarter
Encoding: 188 188 119
Width: 1000
Flags: HMW
LayerCount: 2
Fore
SplineSet
702 750 m 6
 730 750 l 6
 753 750 760 749 760 744 c 0
 760 740 756 733 749 722 c 6
 342 30 l 6
 329 8 329 0 293 0 c 6
 263 0 l 6
 249 0 244 4 244 10 c 0
 244 19 254 32 261 44 c 6
 667 726 l 6
 676 742 675 750 702 750 c 6
EndSplineSet
Refer: 6 52 N 0.6 0 0 0.6 535 32 2
Refer: 3 49 N 0.6 0 0 0.6 107 456 2
EndChar

StartChar: onehalf
Encoding: 189 189 120
Width: 1000
Flags: HMW
LayerCount: 2
Fore
SplineSet
702 750 m 6
 730 750 l 6
 753 750 760 749 760 744 c 0
 760 740 756 733 749 722 c 6
 342 30 l 6
 329 8 329 0 293 0 c 6
 263 0 l 6
 249 0 244 4 244 10 c 0
 244 19 254 32 261 44 c 6
 667 726 l 6
 676 742 675 750 702 750 c 6
EndSplineSet
Refer: 4 50 N 0.6 0 0 0.6 576 17 2
Refer: 3 49 N 0.6 0 0 0.6 107 456 2
EndChar

StartChar: threequarters
Encoding: 190 190 121
Width: 1000
Flags: HMW
LayerCount: 2
Fore
SplineSet
702 750 m 6
 730 750 l 6
 753 750 760 749 760 744 c 0
 760 740 756 733 749 722 c 6
 342 30 l 6
 329 8 329 0 293 0 c 6
 263 0 l 6
 249 0 244 4 244 10 c 0
 244 19 254 32 261 44 c 6
 667 726 l 6
 676 742 675 750 702 750 c 6
EndSplineSet
Refer: 6 52 N 0.6 0 0 0.6 535 32 2
Refer: 5 51 N 0.6 0 0 0.6 65 457 2
EndChar

StartChar: grave
Encoding: 96 96 123
Width: 395
Flags: HMW
LayerCount: 2
Fore
SplineSet
210 690 m 2
 209 690 209 690 208 690 c 0
 170 690 135 717 135 755 c 0
 135 788 164 822 199 822 c 0
 206 822 213 821 220 818 c 2
 411 741 l 2
 423 736 427 738 426 721 c 2
 426 712 l 2
 425 699 428 695 414 695 c 6
 210 690 l 2
EndSplineSet
EndChar

StartChar: acute
Encoding: 180 180 124
Width: 395
Flags: HMW
LayerCount: 2
Fore
SplineSet
165 700 m 2
 -20 704 l 2
 -23 704 -26 704 -28 704 c 0
 -29 704 l 2
 -47 704 -51 707 -51 731 c 0
 -51 749 -44 748 -29 754 c 6
 155 828 l 2
 162 831 169 832 176 832 c 0
 211 832 240 798 240 765 c 0
 240 727 205 700 167 700 c 0
 166 700 166 700 165 700 c 2
EndSplineSet
EndChar

StartChar: cedilla
Encoding: 184 184 128
Width: 550
Flags: HMW
LayerCount: 2
Fore
SplineSet
211 -181 m 0
 219 -181 226 -181 233 -181 c 0
 285 -181 309 -169 309 -150 c 0
 309 -123 291 -106 217 -101 c 0
 181 -98 167 -98 167 -91 c 0
 167 -85 175 -75 189 -58 c 2
 267 41 l 1
 377 41 l 1
 321 -30 l 2
 311 -42 307 -50 307 -54 c 0
 307 -62 321 -62 345 -72 c 4
 385 -88 410 -113 410 -140 c 0
 410 -186 360 -241 217 -241 c 0
 214 -241 212 -241 209 -241 c 0
 183 -241 181 -236 181 -217 c 0
 181 -213 181 -209 181 -204 c 0
 181 -183 183 -179 193 -179 c 0
 197 -179 203 -181 211 -181 c 0
EndSplineSet
EndChar

StartChar: AE
Encoding: 198 198 526
Width: 1197
Flags: HMW
LayerCount: 2
Fore
SplineSet
290 295 m 1
 640 295 l 1
 640 190 l 1
 290 190 l 1
 290 295 l 1
0 95 m 1
 300 95 l 1
 300 0 l 1
 0 0 l 1
 0 95 l 1
646 750 m 5
 775 750 l 5
 169 0 l 1
 35 0 l 1
 646 750 l 5
EndSplineSet
Refer: 16 69 N 1 0 0 1 460 0 2
EndChar

StartChar: ae
Encoding: 230 230 529
Width: 909
VWidth: 1155
Flags: HMW
LayerCount: 2
Fore
SplineSet
314 294 m 1
 334 229 l 1
 228 229 202 178 202 141 c 0
 202 104 225 79 260 79 c 0
 308 79 346 123 346 194 c 1
 425 174 l 1
 425 50 321 -15 200 -15 c 0
 81 -15 15 34 15 128 c 0
 15 222 102 294 314 294 c 1
456 352 m 1
 516 126 l 1
 346 78 l 1
 346 372 l 1
 456 352 l 1
45 383 m 1
 45 470 157 535 288 535 c 4
 388 535 456 493 456 352 c 1
 346 362 l 1
 346 429 313 464 263 464 c 0
 239 464 207 457 207 444 c 1
 45 383 l 1
314 294 m 1
 448 294 l 1
 448 229 l 1
 334 229 l 1
 314 294 l 1
229 374 m 0
 229 330 188 300 134 300 c 0
 78 300 45 329 45 383 c 1
 207 444 l 1
 207 431 229 422 229 374 c 0
375 250 m 1
 516 275 l 1
 516 151 536 69 625 69 c 0
 678 69 737 103 762 173 c 1
 858 173 l 1
 832 66 744 -20 613 -20 c 0
 432 -20 375 110 375 250 c 1
472 329 m 1
 786 329 l 1
 786 246 l 1
 472 246 l 1
 472 329 l 1
869 246 m 1
 699 246 l 1
 699 255 699 264 699 273 c 0
 699 368 696 461 619 461 c 0
 540 461 516 374 516 270 c 1
 375 250 l 1
 375 410 439 540 620 540 c 0
 839 540 869 375 869 246 c 1
EndSplineSet
EndChar

StartChar: perthousand
Encoding: 8240 8240 537
Width: 1470
Flags: HMW
LayerCount: 2
Fore
SplineSet
1190 210 m 0
 1190 108 1201 50 1235 50 c 0
 1269 50 1280 108 1280 210 c 0
 1280 312 1269 370 1235 370 c 0
 1201 370 1190 312 1190 210 c 0
1020 210 m 0
 1020 353 1092 440 1235 440 c 0
 1378 440 1450 353 1450 210 c 0
 1450 67 1358 -20 1235 -20 c 0
 1092 -20 1020 67 1020 210 c 0
720 210 m 0
 720 108 731 50 765 50 c 0
 799 50 810 108 810 210 c 0
 810 312 799 370 765 370 c 0
 731 370 720 312 720 210 c 0
550 210 m 0
 550 353 622 440 765 440 c 0
 908 440 980 353 980 210 c 0
 980 67 888 -20 765 -20 c 0
 622 -20 550 67 550 210 c 0
739 750 m 2
 772 750 l 2
 799 750 809 749 809 744 c 0
 809 740 803 733 795 721 c 2
 324 43 l 2
 303 12 302 0 247 0 c 2
 217 0 l 2
 197 0 190 3 190 8 c 0
 190 15 202 25 211 37 c 6
 689 718 l 2
 703 738 703 750 739 750 c 2
190 540 m 0
 190 438 201 380 235 380 c 0
 269 380 280 438 280 540 c 0
 280 642 269 700 235 700 c 0
 201 700 190 642 190 540 c 0
20 540 m 0
 20 683 92 770 235 770 c 0
 378 770 450 683 450 540 c 0
 450 397 358 310 235 310 c 0
 92 310 20 397 20 540 c 0
EndSplineSet
EndChar

StartChar: uni2031
Encoding: 8241 8241 538
Width: 1940
Flags: HMW
LayerCount: 2
Fore
SplineSet
1660 210 m 0
 1660 108 1671 50 1705 50 c 0
 1739 50 1750 108 1750 210 c 0
 1750 312 1739 370 1705 370 c 0
 1671 370 1660 312 1660 210 c 0
1490 210 m 0
 1490 353 1562 440 1705 440 c 0
 1848 440 1920 353 1920 210 c 0
 1920 67 1828 -20 1705 -20 c 0
 1562 -20 1490 67 1490 210 c 0
1190 210 m 0
 1190 108 1201 50 1235 50 c 0
 1269 50 1280 108 1280 210 c 0
 1280 312 1269 370 1235 370 c 0
 1201 370 1190 312 1190 210 c 0
1020 210 m 0
 1020 353 1092 440 1235 440 c 0
 1378 440 1450 353 1450 210 c 0
 1450 67 1358 -20 1235 -20 c 0
 1092 -20 1020 67 1020 210 c 0
720 210 m 0
 720 108 731 50 765 50 c 0
 799 50 810 108 810 210 c 0
 810 312 799 370 765 370 c 0
 731 370 720 312 720 210 c 0
550 210 m 0
 550 353 622 440 765 440 c 0
 908 440 980 353 980 210 c 0
 980 67 888 -20 765 -20 c 0
 622 -20 550 67 550 210 c 0
733 750 m 2
 784 750 l 2
 804 750 810 748 810 743 c 0
 810 737 799 727 791 715 c 2
 330 52 l 2
 315 31 308 0 271 0 c 2
 211 0 l 2
 195 0 190 3 190 8 c 0
 190 17 207 31 215 43 c 6
 693 724 l 2
 704 740 704 750 733 750 c 2
190 540 m 0
 190 438 201 380 235 380 c 0
 269 380 280 438 280 540 c 0
 280 642 269 700 235 700 c 0
 201 700 190 642 190 540 c 0
20 540 m 0
 20 683 92 770 235 770 c 0
 378 770 450 683 450 540 c 0
 450 397 358 310 235 310 c 0
 92 310 20 397 20 540 c 0
EndSplineSet
EndChar

StartChar: uniFB00
Encoding: 64256 64256 542
Width: 825
VWidth: 1155
Flags: HMW
LayerCount: 2
Fore
SplineSet
280 404 m 2
 280 132 l 2
 280 125 280 118 280 113 c 0
 280 89 283 85 318 85 c 2
 340 85 l 2
 349 85 357 86 363 86 c 0
 374 86 380 83 380 64 c 2
 380 34 l 2
 380 27 380 21 380 16 c 0
 380 4 378 0 358 0 c 2
 60 0 l 2
 55 0 50 0 46 -0 c 0
 23 0 20 2 20 34 c 2
 20 64 l 6
 20 85 26 85 45 85 c 0
 46 85 l 2
 88 85 l 2
 108 85 110 89 110 101 c 0
 110 106 110 112 110 120 c 2
 110 416 l 2
 110 434 108 435 95 435 c 0
 93 435 91 435 88 435 c 2
 44 435 l 2
 22 435 20 437 20 453 c 0
 20 456 20 460 20 464 c 2
 20 502 l 2
 20 518 22 520 33 520 c 0
 36 520 40 520 44 520 c 2
 82 520 l 2
 84 520 85 520 87 520 c 0
 109 520 110 521 110 546 c 2
 110 572 l 2
 110 703 217 780 367 780 c 0
 420 780 469 772 508 756 c 0
 532 746 540 739 550 739 c 0
 557 739 565 743 580 754 c 0
 621 783 674 800 737 800 c 0
 868 800 960 751 960 664 c 0
 960 594 915 553 863 553 c 0
 801 553 763 591 763 646 c 0
 763 693 793 698 793 709 c 0
 793 717 781 725 759 725 c 0
 679 725 660 677 660 550 c 0
 660 523 664 520 681 520 c 0
 686 520 694 520 702 520 c 2
 768 520 l 2
 775 520 780 520 784 520 c 0
 796 520 800 518 800 498 c 2
 800 456 l 2
 800 435 799 435 780 435 c 0
 779 435 779 435 778 435 c 2
 696 435 l 2
 689 435 683 435 678 435 c 0
 664 435 660 432 660 410 c 2
 660 118 l 2
 660 113 660 109 660 106 c 0
 660 87 662 85 688 85 c 2
 752 85 l 2
 780 85 780 84 780 56 c 2
 780 28 l 2
 780 26 780 25 780 23 c 0
 780 1 779 0 754 0 c 2
 442 0 l 2
 421 0 420 1 420 19 c 0
 420 21 420 22 420 24 c 2
 420 58 l 2
 420 62 420 66 420 69 c 0
 420 83 422 85 442 85 c 2
 470 85 l 2
 488 85 491 90 491 101 c 0
 491 106 490 112 490 120 c 2
 490 404 l 2
 490 435 489 435 460 435 c 0
 458 435 l 2
 316 435 l 2
 311 435 308 435 304 435 c 0
 283 435 280 433 280 404 c 2
310 520 m 2
 468 520 l 2
 471 520 475 520 477 520 c 0
 489 520 490 521 490 538 c 0
 490 559 480 553 464 556 c 0
 425 563 403 584 403 626 c 0
 403 673 433 678 433 689 c 0
 433 697 411 705 389 705 c 0
 309 705 280 637 280 550 c 0
 280 520 280 520 310 520 c 2
EndSplineSet
LCarets2: 1 0
Ligature2: "Not your mama's contextual ligatures" f f
EndChar

StartChar: uniFB01
Encoding: 64257 64257 543
Width: 760
VWidth: 1155
Flags: HMW
LayerCount: 2
Fore
SplineSet
280 393 m 6
 280 115 l 2
 280 85 281 85 309 85 c 0
 310 85 310 85 311 85 c 2
 361 85 l 2
 365 85 369 85 372 85 c 0
 388 85 390 83 390 61 c 2
 390 31 l 2
 390 2 388 0 365 -0 c 0
 362 0 359 0 355 0 c 2
 59 0 l 2
 53 0 48 0 43 -0 c 0
 24 0 20 3 20 31 c 2
 20 61 l 2
 20 84 21 85 39 85 c 0
 41 85 44 85 47 85 c 2
 83 85 l 2
 109 85 110 87 110 107 c 0
 110 109 110 112 110 115 c 2
 110 415 l 2
 110 433 106 435 95 435 c 0
 91 435 86 435 79 435 c 2
 43 435 l 2
 23 435 19 440 19 452 c 0
 19 457 20 465 20 473 c 2
 20 497 l 2
 20 500 20 504 20 506 c 0
 20 518 21 520 39 520 c 2
 75 520 l 2
 80 520 84 520 88 520 c 0
 107 520 110 522 110 549 c 2
 110 572 l 2
 110 703 217 800 387 800 c 0
 518 800 620 761 620 664 c 0
 620 604 575 563 523 563 c 0
 461 563 423 601 423 656 c 0
 423 693 445 705 445 712 c 0
 445 720 421 725 399 725 c 0
 319 725 280 677 280 550 c 0
 280 520 281 520 309 520 c 0
 311 520 l 2
 627 520 l 2
 657 520 660 516 660 495 c 0
 660 490 660 485 660 479 c 2
 660 123 l 2
 660 117 660 112 660 108 c 0
 660 88 662 85 691 85 c 2
 731 85 l 2
 748 85 751 81 751 71 c 0
 751 66 750 60 750 53 c 2
 750 29 l 2
 750 2 747 0 728 -0 c 0
 724 0 720 0 715 0 c 2
 435 0 l 2
 413 0 409 5 409 18 c 0
 409 23 410 31 410 39 c 2
 410 57 l 2
 410 83 413 85 431 85 c 0
 435 85 439 85 445 85 c 0
 448 85 450 85 453 85 c 0
 488 85 490 86 490 127 c 2
 490 397 l 2
 490 432 486 435 462 435 c 0
 457 435 450 435 443 435 c 2
 325 435 l 2
 322 435 320 435 317 435 c 0
 282 435 280 434 280 393 c 6
EndSplineSet
LCarets2: 1 0
Ligature2: "Not your mama's contextual ligatures" f i
EndChar

StartChar: uniFB02
Encoding: 64258 64258 544
Width: 785
VWidth: 1155
Flags: HMW
LayerCount: 2
Fore
SplineSet
741 0 m 2
 468 0 l 2
 433 0 430 3 430 29 c 0
 430 34 430 39 430 45 c 2
 430 60 l 2
 430 84 431 85 450 85 c 0
 452 85 455 85 458 85 c 2
 490 85 l 2
 493 85 495 85 498 85 c 0
 518 85 520 86 520 112 c 2
 520 514 l 2
 520 522 521 533 513 533 c 0
 451 533 413 571 413 626 c 0
 413 673 443 678 443 689 c 0
 443 697 411 705 389 705 c 0
 309 705 280 637 280 550 c 0
 280 548 280 547 280 545 c 0
 280 521 281 520 308 520 c 2
 370 520 l 2
 381 520 391 521 399 521 c 0
 413 521 420 517 420 496 c 2
 420 466 l 2
 420 464 420 463 420 461 c 0
 420 436 419 435 390 435 c 2
 314 435 l 2
 309 435 305 435 302 435 c 0
 282 435 280 433 280 406 c 2
 280 130 l 2
 280 123 280 116 280 111 c 0
 280 89 283 85 316 85 c 2
 336 85 l 2
 346 85 354 86 360 86 c 0
 373 86 380 82 380 60 c 2
 380 34 l 2
 380 2 377 0 354 -0 c 0
 350 0 345 0 340 0 c 2
 58 0 l 2
 51 0 45 0 40 -0 c 0
 24 0 20 3 20 28 c 2
 20 50 l 2
 20 57 20 62 20 66 c 0
 20 81 22 85 46 85 c 2
 84 85 l 2
 107 85 111 92 111 106 c 0
 111 113 110 121 110 132 c 2
 110 414 l 2
 110 433 107 435 94 435 c 0
 91 435 88 435 84 435 c 2
 44 435 l 2
 22 435 20 439 20 452 c 0
 20 457 20 463 20 470 c 2
 20 496 l 2
 20 518 22 520 39 520 c 0
 42 520 44 520 48 520 c 2
 78 520 l 2
 80 520 81 520 83 520 c 0
 109 520 110 521 110 550 c 2
 110 572 l 2
 110 703 217 780 367 780 c 0
 422 780 474 772 516 755 c 0
 541 745 552 734 566 734 c 0
 573 734 582 737 594 744 c 2
 644 773 l 2
 655 780 665 785 673 785 c 0
 684 785 690 775 690 744 c 6
 690 129 l 2
 690 121 690 114 690 109 c 0
 690 90 693 85 723 85 c 2
 744 85 l 2
 752 85 759 86 764 86 c 0
 774 86 780 83 780 66 c 2
 780 30 l 2
 780 3 776 0 758 -0 c 0
 753 0 748 0 741 0 c 2
EndSplineSet
LCarets2: 1 0
Ligature2: "Not your mama's contextual ligatures" f l
EndChar

StartChar: uniFB03
Encoding: 64259 64259 545
Width: 1160
VWidth: 1155
Flags: HMW
LayerCount: 2
Fore
SplineSet
754 0 m 2
 452 0 l 2
 421 0 420 2 420 28 c 0
 420 30 420 32 420 35 c 2
 420 61 l 2
 420 83 423 85 438 85 c 0
 441 85 445 85 450 85 c 2
 478 85 l 2
 508 85 510 87 510 111 c 0
 510 114 510 117 510 121 c 2
 510 415 l 2
 510 433 506 435 495 435 c 0
 491 435 485 435 478 435 c 2
 318 435 l 2
 316 435 314 435 312 435 c 0
 281 435 280 434 280 399 c 2
 280 127 l 2
 280 121 280 116 280 112 c 0
 280 87 282 85 316 85 c 2
 354 85 l 2
 378 85 380 82 380 66 c 0
 380 62 380 57 380 51 c 2
 380 25 l 2
 380 3 376 0 362 -0 c 0
 357 0 350 0 342 0 c 2
 44 0 l 2
 22 0 20 3 20 18 c 0
 20 22 20 26 20 31 c 2
 20 61 l 2
 20 83 23 85 38 85 c 0
 41 85 45 85 50 85 c 2
 72 85 l 2
 74 85 76 85 78 85 c 0
 109 85 110 86 110 121 c 2
 110 417 l 2
 110 433 104 436 93 436 c 0
 87 436 79 435 70 435 c 2
 52 435 l 2
 20 435 20 435 20 467 c 2
 20 501 l 2
 20 518 24 521 34 521 c 0
 39 521 45 520 52 520 c 2
 80 520 l 2
 110 520 110 521 110 551 c 2
 110 572 l 2
 110 703 217 780 367 780 c 0
 454 780 528 759 568 719 c 1
 616 769 691 800 787 800 c 0
 918 800 1020 761 1020 664 c 0
 1020 604 975 563 923 563 c 0
 861 563 823 601 823 656 c 0
 823 693 845 705 845 712 c 0
 845 720 821 725 799 725 c 0
 719 725 680 677 680 550 c 0
 680 523 686 520 702 520 c 0
 708 520 715 520 724 520 c 2
 1030 520 l 2
 1054 520 1060 515 1060 490 c 2
 1060 125 l 2
 1060 118 1060 112 1060 107 c 0
 1060 89 1063 85 1090 85 c 2
 1120 85 l 2
 1126 85 1130 85 1134 85 c 0
 1146 85 1150 83 1150 63 c 2
 1150 31 l 2
 1150 28 1150 25 1150 22 c 0
 1150 1 1149 0 1122 0 c 2
 842 0 l 2
 839 0 836 0 834 -0 c 0
 811 0 810 1 810 29 c 2
 810 63 l 2
 810 84 812 85 827 85 c 0
 830 85 833 85 836 85 c 2
 866 85 l 2
 888 85 890 88 890 103 c 0
 890 106 890 110 890 115 c 2
 890 405 l 2
 890 432 886 435 868 435 c 0
 863 435 857 435 850 435 c 2
 712 435 l 2
 710 435 709 435 707 435 c 0
 681 435 680 434 680 405 c 2
 680 121 l 2
 680 116 680 111 680 107 c 0
 680 87 682 85 710 85 c 2
 754 85 l 2
 761 85 767 85 772 85 c 0
 786 85 790 82 790 59 c 2
 790 29 l 2
 790 2 787 0 768 -0 c 0
 764 0 760 0 754 0 c 2
320 520 m 2
 482 520 l 2
 488 520 493 520 497 520 c 0
 506 520 510 522 510 537 c 0
 510 546 513 553 503 553 c 4
 497 553 491 554 486 554 c 0
 434 557 403 576 403 626 c 0
 403 673 433 678 433 689 c 0
 433 697 411 705 389 705 c 0
 309 705 280 637 280 550 c 0
 280 523 284 520 302 520 c 0
 307 520 313 520 320 520 c 2
EndSplineSet
LCarets2: 2 0 0
Ligature2: "Not your mama's contextual ligatures" f f i
EndChar

StartChar: uniFB04
Encoding: 64260 64260 546
Width: 1185
VWidth: 1155
Flags: HMW
LayerCount: 2
Fore
SplineSet
318 520 m 2
 486 520 l 2
 491 520 496 520 499 520 c 0
 507 520 510 522 510 535 c 0
 510 553 505 554 494 554 c 0
 493 554 491 554 490 554 c 0
 487 554 484 554 480 554 c 0
 432 558 403 578 403 626 c 0
 403 673 433 678 433 689 c 0
 433 697 411 705 389 705 c 0
 309 705 280 637 280 550 c 0
 280 522 283 520 302 520 c 0
 306 520 312 520 318 520 c 2
1152 0 m 6
 872 0 l 2
 863 0 855 -1 849 -1 c 0
 835 -1 830 3 830 26 c 2
 830 56 l 2
 830 61 830 65 830 69 c 0
 830 82 832 85 852 85 c 2
 896 85 l 2
 917 85 921 90 921 103 c 0
 921 109 920 115 920 124 c 2
 920 505 l 2
 920 540 912 530 884 536 c 0
 839 546 813 580 813 626 c 0
 813 673 843 678 843 689 c 0
 843 697 811 705 789 705 c 0
 709 705 680 637 680 550 c 0
 680 523 684 520 701 520 c 0
 706 520 714 520 722 520 c 2
 770 520 l 2
 779 520 790 522 799 522 c 0
 811 522 820 519 820 505 c 2
 820 477 l 2
 820 468 821 460 821 454 c 0
 821 441 817 435 796 435 c 2
 714 435 l 2
 681 435 680 434 680 404 c 0
 680 402 680 401 680 399 c 2
 680 112 l 2
 680 110 680 109 680 107 c 0
 680 86 681 85 706 85 c 2
 730 85 l 2
 741 85 751 86 759 86 c 0
 772 86 780 83 780 64 c 2
 780 40 l 2
 780 38 780 36 780 34 c 0
 780 1 779 0 742 0 c 2
 450 0 l 2
 421 0 420 1 420 27 c 0
 420 29 420 30 420 32 c 2
 420 64 l 2
 420 85 421 85 440 85 c 0
 441 85 441 85 442 85 c 2
 480 85 l 2
 508 85 510 87 510 108 c 0
 510 111 510 116 510 120 c 2
 510 412 l 2
 510 433 508 435 493 435 c 0
 490 435 486 435 482 435 c 2
 320 435 l 2
 313 435 307 435 302 435 c 0
 284 435 280 432 280 405 c 2
 280 124 l 2
 280 116 280 110 280 105 c 0
 280 89 283 85 308 85 c 2
 344 85 l 2
 352 85 359 86 365 86 c 0
 375 86 380 83 380 68 c 2
 380 40 l 2
 380 32 380 25 380 20 c 0
 380 5 377 0 352 0 c 2
 46 0 l 2
 21 0 20 1 20 23 c 0
 20 25 20 26 20 28 c 2
 20 62 l 2
 20 85 21 85 42 85 c 0
 43 85 43 85 44 85 c 2
 82 85 l 2
 107 85 110 89 110 105 c 0
 110 110 110 116 110 124 c 2
 110 407 l 2
 110 434 109 435 85 435 c 0
 83 435 82 435 80 435 c 2
 46 435 l 2
 23 435 20 439 20 454 c 0
 20 459 20 464 20 471 c 2
 20 495 l 2
 20 518 22 520 39 520 c 0
 42 520 46 520 50 520 c 2
 72 520 l 2
 79 520 84 520 89 520 c 0
 106 520 110 523 110 549 c 2
 110 572 l 2
 110 703 217 780 367 780 c 0
 436 780 498 766 540 740 c 0
 558 729 566 725 573 725 c 0
 583 725 591 734 616 747 c 0
 657 769 709 780 767 780 c 0
 825 780 879 770 922 752 c 0
 946 742 955 734 967 734 c 0
 976 734 985 738 1002 748 c 2
 1048 775 l 2
 1061 783 1071 787 1077 787 c 0
 1087 787 1090 776 1090 751 c 2
 1090 128 l 2
 1090 119 1090 112 1090 106 c 0
 1090 90 1093 85 1120 85 c 2
 1156 85 l 2
 1179 85 1180 84 1180 66 c 0
 1180 64 1180 61 1180 58 c 2
 1180 34 l 2
 1180 29 1180 25 1180 21 c 0
 1180 3 1178 0 1152 0 c 6
EndSplineSet
LCarets2: 2 0 0
Ligature2: "Not your mama's contextual ligatures" f f l
EndChar

StartChar: uniFFFD
Encoding: 65533 65533 547
Width: 830
Flags: HMW
LayerCount: 2
Fore
SplineSet
465 645 m 2
 357 645 l 2
 327 645 325 643 325 619 c 0
 325 616 325 613 325 609 c 2
 325 471 l 2
 325 469 325 468 325 466 c 0
 325 431 326 430 365 430 c 2
 465 430 l 2
 521 430 575 466 575 545 c 0
 575 624 521 645 465 645 c 2
789 0 m 2
 705 0 l 2
 422 0 626 320 390 320 c 2
 349 320 l 2
 326 320 325 312 325 293 c 0
 325 290 325 288 325 285 c 2
 325 130 l 2
 325 108 331 104 344 104 c 0
 350 104 356 105 365 105 c 2
 403 105 l 2
 408 105 413 105 417 105 c 0
 432 105 435 103 435 80 c 2
 435 30 l 2
 435 3 431 0 414 -0 c 0
 409 0 401 0 393 0 c 2
 67 0 l 2
 30 0 30 1 30 38 c 2
 30 70 l 2
 30 105 30 105 65 105 c 2
 117 105 l 2
 138 105 140 108 140 122 c 0
 140 125 140 129 140 134 c 2
 140 613 l 2
 140 645 139 645 109 645 c 0
 107 645 l 2
 61 645 l 2
 33 645 30 649 30 668 c 0
 30 673 30 678 30 685 c 2
 30 723 l 2
 30 747 38 751 52 751 c 0
 59 751 68 750 79 750 c 2
 465 750 l 2
 686 750 765 665 765 545 c 0
 765 472 719 411 610 383 c 4
 589 378 579 374 579 370 c 0
 579 366 589 361 607 352 c 4
 758 281 678 105 761 105 c 2
 793 105 l 2
 818 105 820 100 820 83 c 0
 820 81 820 78 820 75 c 2
 820 31 l 2
 820 25 820 20 820 16 c 0
 820 3 817 0 789 0 c 2
EndSplineSet
EndChar
